<?xml version="1.0" standalone="no"?>
<!DOCTYPE svg PUBLIC "-//W3C//DTD SVG 1.1//EN" "http://www.w3.org/Graphics/SVG/1.1/DTD/svg11.dtd" >
<svg>
<metadata>
Created by FontForge 20110222 at Sat Mar 21 17:58:53 2015
 By deploy user
Digitized data (C) 2004 Agfa Monotype Corporation. Neo Sans(TM) is a trademark of Monotype Imaging Corp. and may be registered in certain jurisdictions.
</metadata>
<defs>
<font id="NeoSansIntel-Light" horiz-adv-x="1147" >
  <font-face 
    font-family="Neo Sans Intel Light"
    font-weight="300"
    font-stretch="normal"
    units-per-em="2048"
    panose-1="2 11 3 3 2 2 2 2 2 4"
    ascent="1638"
    descent="-410"
    x-height="1100"
    cap-height="1522"
    bbox="-194 -451 2042 1968"
    underline-thickness="86"
    underline-position="-115"
    unicode-range="U+0020-F002"
  />
<missing-glyph horiz-adv-x="2048" 
d="M213 0v1536h1536v-1536h-1536zM341 128h1280v1280h-1280v-1280z" />
    <glyph glyph-name="uniF001" unicode="fi" horiz-adv-x="1128" 
d="M985 1341q0 -16 -11.5 -27t-27.5 -11h-12q-16 0 -27.5 11.5t-11.5 26.5v152q0 15 12 27t27 12h12q15 0 27 -11t12 -28v-152zM985 39q0 -16 -12 -27.5t-27 -11.5h-12q-15 0 -27 12t-12 27v1022q0 15 12 27t27 12h12q15 0 27 -11t12 -28v-1022zM680 1479q0 -27 -43 -27
h-102q-75 0 -108.5 -35.5t-33.5 -126.5v-190h244q18 0 28.5 -9t10.5 -24v-18q0 -33 -39 -33h-244v-977q0 -16 -10.5 -27.5t-26.5 -11.5h-14q-16 0 -27.5 11.5t-11.5 27.5v977h-203q-39 0 -39 33v18q0 15 11 24t28 9h203v190q0 242 232 242q66 0 106 -6q39 -5 39 -33v-14z
" />
    <glyph glyph-name="uniF002" unicode="fl" horiz-adv-x="1128" 
d="M985 39q0 -17 -10 -28t-25 -11h-20q-15 0 -25 12t-10 27v1456q0 15 9.5 27t25.5 12h20q16 0 25.5 -11t9.5 -28v-1456zM680 1479q0 -27 -43 -27h-102q-75 0 -108.5 -35.5t-33.5 -126.5v-190h244q18 0 28.5 -9t10.5 -24v-18q0 -33 -39 -33h-244v-977q0 -16 -10.5 -27.5
t-26.5 -11.5h-14q-16 0 -27.5 11.5t-11.5 27.5v977h-203q-39 0 -39 33v18q0 15 11 24t28 9h203v190q0 242 232 242q66 0 106 -6q39 -5 39 -33v-14z" />
    <glyph glyph-name=".notdef" horiz-adv-x="2048" 
d="M213 0v1536h1536v-1536h-1536zM341 128h1280v1280h-1280v-1280z" />
    <glyph glyph-name=".null" horiz-adv-x="0" 
 />
    <glyph glyph-name="nonmarkingreturn" horiz-adv-x="440" 
 />
    <glyph glyph-name="space" unicode=" " horiz-adv-x="440" 
 />
    <glyph glyph-name="exclam" unicode="!" horiz-adv-x="377" 
d="M233 393q0 -16 -11.5 -27.5t-26.5 -11.5h-13q-15 0 -27 12t-12 27v1090q0 15 12 27t27 12h13q15 0 26.5 -11.5t11.5 -27.5v-1090zM233 27q0 -17 -11 -28t-27 -11h-13q-16 0 -27.5 11.5t-11.5 27.5v151q0 15 11.5 27t27.5 12h13q17 0 27.5 -11.5t10.5 -27.5v-151z" />
    <glyph glyph-name="quotedbl" unicode="&#x22;" horiz-adv-x="563" 
d="M504 1499q0 -10 -2 -16l-99 -353q-6 -21 -14.5 -29.5t-23.5 -8.5h-31q-19 0 -19 20q0 12 2 18l84 353q10 39 41 39h39q23 0 23 -23zM248 1499q0 -10 -2 -16l-99 -353q-6 -21 -14.5 -29.5t-23.5 -8.5h-31q-19 0 -19 20q0 12 2 18l84 353q10 39 41 39h39q23 0 23 -23z" />
    <glyph glyph-name="numbersign" unicode="#" horiz-adv-x="1262" 
d="M1180 1018q0 -15 -13 -25t-28 -10h-213l-41 -463h213q35 0 35 -35v-6q0 -16 -12.5 -25.5t-28.5 -9.5h-215l-35 -405q-4 -39 -37 -39h-19q-32 0 -32 35v4l34 405h-368l-35 -405q-2 -16 -12.5 -27.5t-24.5 -11.5h-20q-14 0 -23.5 11.5t-9.5 23.5v4l35 405h-211
q-37 0 -37 35v6q0 16 13 25.5t30 9.5h213l41 463h-213q-16 0 -26.5 9.5t-10.5 25.5v8q0 15 12.5 25t30.5 10h213l37 422q1 15 12.5 27t26.5 12h20q14 0 22.5 -10.5t8.5 -24.5v-4l-37 -422h369l37 422q4 39 39 39h18q31 0 31 -35v-4l-37 -422h213q35 0 35 -35v-8zM838 983
h-369l-41 -463h369z" />
    <glyph glyph-name="dollar" unicode="$" 
d="M541 -223v211q-194 5 -361 84q-10 6 -15.5 9t-10 6.5t-8 10.5t-3.5 17v28q0 13 9 21t30 -2q197 -88 385 -88q138 0 218.5 39t112.5 107t32 159q0 73 -30.5 123.5t-89.5 94t-196 128.5l-129 80q-110 68 -176 121t-105.5 120t-39.5 154q0 116 55 188t139 104.5t183 37.5
v176q0 17 9 28t23 11h21q14 0 23.5 -11t9.5 -28v-176q99 -5 192.5 -30t128.5 -44q23 -10 29 -17.5t6 -23.5v-22q0 -38 -39 -23q-36 16 -89.5 32.5t-125 30t-145.5 13.5q-328 0 -328 -248q0 -63 30 -112t84 -92t162 -109l132 -80q123 -74 200.5 -134.5t118.5 -131.5t41 -160
q0 -69 -18 -132.5t-62 -118.5t-122 -92t-195 -46v-213q0 -17 -9.5 -28t-23.5 -11h-21q-14 0 -23 11t-9 28z" />
    <glyph glyph-name="percent" unicode="%" horiz-adv-x="1509" 
d="M623 1001q0 -160 -68.5 -240.5t-192.5 -80.5q-121 0 -190.5 80.5t-69.5 240.5v211q0 107 31.5 178.5t90 106.5t138.5 35q83 0 141 -35t89 -107t31 -178v-211zM539 1001v211q0 238 -177 238q-176 0 -176 -238v-211q0 -237 176 -237q177 0 177 237zM1231 1479l-858 -1452
q-14 -23 -22.5 -31t-20.5 -8h-56q-16 0 -16 12q0 9 12 31l856 1452q20 30 25 34.5t20 4.5h54q18 0 18 -13q0 -10 -12 -30zM1407 309q0 -161 -68 -241t-192 -80q-123 0 -191.5 80.5t-68.5 240.5v211q0 160 68.5 240t191.5 80q124 0 192 -79.5t68 -240.5v-211zM1323 309v211
q0 238 -176 238t-176 -238v-211q0 -237 176 -237t176 237z" />
    <glyph glyph-name="ampersand" unicode="&#x26;" horiz-adv-x="1264" 
d="M1206 14q0 -14 -16 -14h-66q-20 0 -32 14l-129 138q-158 -164 -418 -164q-81 0 -163 18t-150 58t-109 109.5t-41 168.5v12q0 83 29.5 150.5t97 131t184.5 138.5q-88 104 -134.5 167.5t-70.5 110t-32.5 83t-8.5 71.5v13q0 164 106 238.5t286 74.5q100 0 184.5 -31.5
t137 -102t52.5 -179.5v-13q0 -79 -31 -144.5t-100.5 -129.5t-189.5 -135l-68 -41q35 -39 59.5 -64.5t53 -55.5t80.5 -87l244 -262q104 162 104 426v22q0 39 31 39h28q33 0 33 -39v-22q0 -141 -33 -267.5t-102 -224.5l180 -194q4 -8 4 -13zM819 1206v13q0 231 -280 231
q-144 0 -220.5 -50t-76.5 -181v-13q0 -46 14 -87.5t62 -110.5t151 -187l76 45q112 66 170.5 118.5t81 104.5t22.5 117zM905 215l-254 272q-147 158 -202 222q-106 -66 -164.5 -117.5t-82.5 -105.5t-24 -132v-12q0 -139 106.5 -205.5t260.5 -66.5q117 0 207 38.5t153 106.5z
" />
    <glyph glyph-name="quotesingle" unicode="'" horiz-adv-x="307" 
d="M248 1499q0 -10 -2 -16l-99 -353q-6 -21 -14.5 -29.5t-23.5 -8.5h-31q-19 0 -19 20q0 12 2 18l84 353q10 39 41 39h39q23 0 23 -23z" />
    <glyph glyph-name="parenleft" unicode="(" horiz-adv-x="502" 
d="M481 -389q0 -10 -16 -10h-62q-23 0 -34 14q-70 87 -120 195.5t-83 232t-48.5 244t-15.5 219.5v110q0 99 15.5 220.5t48.5 244.5t83.5 233t119.5 193q11 15 34 15h62q16 0 16 -11q0 -8 -10 -18q-68 -72 -119.5 -178t-87 -230t-52.5 -247t-17 -222v-110q0 -137 31 -305.5
t94 -322t151 -249.5q10 -10 10 -18z" />
    <glyph glyph-name="parenright" unicode=")" horiz-adv-x="502" 
d="M399 506q0 -107 -15.5 -225t-47.5 -238.5t-83 -232.5t-120 -195q-11 -14 -35 -14h-61q-17 0 -17 10q0 7 11 18q88 96 151 249.5t94 322t31 305.5v110q0 110 -17.5 231t-51.5 239t-86.5 226.5t-120.5 180.5q-11 11 -11 18q0 11 17 11h61q24 0 35 -15q67 -80 119 -193
t84 -233t47.5 -239t15.5 -226v-110z" />
    <glyph glyph-name="asterisk" unicode="*" horiz-adv-x="813" 
d="M764 1260q0 -26 -29 -33l-266 -86l164 -228q10 -13 10 -24q0 -14 -12 -23l-15 -10q-9 -6 -16 -6q-13 0 -29 18l-165 228l-164 -228q-14 -16 -29 -16q-10 0 -16 4l-17 10q-12 6 -12 21q0 13 10 26l166 228l-266 86q-29 7 -29 33q0 6 2 8l6 16q6 19 29 19q8 0 14 -3
l269 -86v281q0 37 28 37h19q28 0 28 -37v-281l269 86q6 3 14 3q23 0 29 -19l6 -16q2 -2 2 -8z" />
    <glyph glyph-name="plus" unicode="+" 
d="M1030 791q0 -33 -41 -33h-373v-371q0 -41 -32 -41h-21q-15 0 -24 12.5t-9 28.5v371h-370q-41 0 -41 33v20q0 33 41 33h370v373q0 40 33 40h21q32 0 32 -40v-373h373q41 0 41 -33v-20z" />
    <glyph glyph-name="comma" unicode="," horiz-adv-x="303" 
d="M246 195q0 -5 -4 -17l-129 -344q-8 -21 -16.5 -30t-22.5 -9h-25q-20 0 -20 21q0 6 4 18l108 344q12 39 41 39h39q25 0 25 -22z" />
    <glyph glyph-name="hyphen" unicode="-" horiz-adv-x="664" 
d="M578 559q0 -15 -10.5 -24t-28.5 -9h-414q-17 0 -28 9t-11 24v16q0 17 11 27t28 10h414q17 0 28 -10t11 -27v-16z" />
    <glyph glyph-name="period" unicode="." horiz-adv-x="303" 
d="M197 27q0 -16 -11.5 -27.5t-27.5 -11.5h-13q-16 0 -27.5 11.5t-11.5 27.5v151q0 15 11.5 27t27.5 12h13q17 0 28 -12t11 -27v-151z" />
    <glyph glyph-name="slash" unicode="/" horiz-adv-x="598" 
d="M590 1507q0 -10 -2 -14l-482 -1466q-12 -39 -32 -39h-45q-21 0 -21 24q0 11 2 15l482 1466q7 20 13 29.5t19 9.5h43q23 0 23 -25z" />
    <glyph glyph-name="zero" unicode="0" 
d="M1044 559q0 -287 -124.5 -429t-346.5 -142t-346.5 142t-124.5 429v404q0 288 124 428.5t347 140.5t347 -140.5t124 -428.5v-404zM954 559v404q0 160 -44 269.5t-129 163.5t-208 54t-207.5 -54t-128.5 -163.5t-44 -269.5v-404q0 -160 44 -269.5t128 -164.5t208 -55
q184 0 282.5 124.5t98.5 364.5z" />
    <glyph glyph-name="one" unicode="1" 
d="M635 41q0 -17 -13 -29t-28 -12h-8q-17 0 -29 12t-12 29v1393l-242 -31h-10q-31 0 -31 27v10q0 34 41 41l285 41h10q37 0 37 -41v-1440z" />
    <glyph glyph-name="two" unicode="2" 
d="M1004 1174q0 -79 -25 -140t-84.5 -121t-167.5 -133l-209 -141q-124 -83 -186 -156t-79 -142t-17 -175v-82h708q41 0 41 -31v-22q0 -31 -41 -31h-760q-17 0 -29 12t-12 29v125q0 81 11.5 148t45.5 132t98.5 131.5t162.5 131.5l209 141q140 96 187.5 161t47.5 163
q0 137 -76.5 204.5t-228.5 67.5q-155 0 -385 -84q-43 -14 -43 27v14q0 19 8 28t31 17q218 84 389 84q121 0 212 -39t141.5 -120t50.5 -199z" />
    <glyph glyph-name="three" unicode="3" 
d="M549 -12q-104 0 -204.5 20.5t-154.5 44.5q-24 12 -31 19.5t-7 25.5v19q0 41 49 24q193 -67 329 -67q188 0 278.5 85.5t90.5 262.5v41q0 129 -72 211t-219 82h-383q-17 0 -28 10t-11 27v14q0 16 11.5 26.5t27.5 10.5h383q146 0 218.5 83.5t72.5 205.5v24q0 106 -37 169
t-107 90.5t-171 27.5q-155 0 -383 -70q-49 -16 -49 25v14q0 19 8 28t30 17q203 72 394 72q119 0 212 -37.5t146 -120.5t53 -215v-24q0 -234 -202 -336q95 -39 148.5 -126.5t53.5 -207.5v-41q0 -141 -57 -239.5t-158 -146.5t-231 -48z" />
    <glyph glyph-name="four" unicode="4" 
d="M1090 477q0 -16 -11 -25.5t-28 -9.5h-205v-403q0 -16 -9 -27.5t-24 -11.5h-25q-32 0 -32 39v403h-568q-61 0 -96 32t-35 79q0 41 29 86l573 842q34 51 105 51q36 0 59 -24.5t23 -73.5v-906h205q16 0 27.5 -9t11.5 -23v-19zM756 528v893q0 17 -13 17q-9 0 -20 -17
l-559 -821q-21 -34 -21 -47q0 -25 45 -25h568z" />
    <glyph glyph-name="five" unicode="5" 
d="M137 113v14q0 45 43 27q200 -82 363 -82q176 0 279.5 94.5t103.5 273.5v52q0 126 -51 195t-158 95.5t-285 26.5h-217q-19 0 -30 11t-11 30v4l47 633q1 14 14 24.5t27 10.5h668q15 0 28 -9t13 -24v-23q0 -28 -41 -28h-621l-37 -545h209q273 0 404 -99t131 -302v-52
q0 -107 -35 -192.5t-99 -143.5t-151 -87t-188 -29q-107 0 -204.5 25.5t-162.5 54.5q-22 10 -30.5 18t-8.5 27z" />
    <glyph glyph-name="six" unicode="6" 
d="M946 514v10q0 318 -366 318q-187 0 -379 -49v-275q0 -241 86.5 -344.5t275.5 -103.5q190 0 286.5 104t96.5 340zM612 1448q-110 0 -185.5 -22.5t-125 -73t-75 -137t-25.5 -216.5v-127q208 54 379 54q128 0 230 -38t164 -127t62 -237v-10q0 -172 -49.5 -290t-155 -177
t-268.5 -59q-229 0 -340.5 130.5t-111.5 399.5v481q0 192 54.5 309t165 170.5t281.5 53.5q161 0 324 -53q22 -7 30.5 -16t8.5 -29v-11q0 -40 -49 -24q-156 49 -314 49z" />
    <glyph glyph-name="seven" unicode="7" 
d="M1038 1450q0 -25 -10 -45l-655 -1385q-3 -7 -16.5 -13.5t-20.5 -6.5h-31q-31 0 -31 31q0 13 7 24l647 1350q2 4 2 12q0 17 -17 17h-766q-17 0 -29 9t-12 23v17q0 15 13 27t28 12h811q36 0 58 -19.5t22 -52.5z" />
    <glyph glyph-name="eight" unicode="8" 
d="M1053 403q0 -204 -131 -309.5t-349 -105.5q-217 0 -348 105.5t-131 309.5v62q0 59 24 124.5t71 120.5t118 87q-99 36 -156 122.5t-57 194.5v45q0 125 59.5 209t168.5 124t251 40q143 0 252 -40.5t168.5 -124t59.5 -208.5v-45q0 -68 -25.5 -133t-74 -112.5t-113.5 -71.5
q102 -46 157.5 -141.5t55.5 -190.5v-62zM956 1114v45q0 147 -97 217t-286 70q-188 0 -285.5 -70t-97.5 -217v-45q0 -67 28 -127.5t95.5 -101.5t175.5 -41h168q109 0 176 41t95 102t28 127zM956 403v62q0 42 -14.5 91t-48 94.5t-93 75.5t-143.5 30h-168q-82 0 -141.5 -30
t-94 -77t-49 -94.5t-14.5 -89.5v-62q0 -161 100 -245t283 -84q185 0 284 84t99 245z" />
    <glyph glyph-name="nine" unicode="9" 
d="M201 1006v-11q0 -317 366 -317q187 0 379 49v274q0 241 -86.5 345t-275.5 104q-190 0 -286.5 -104t-96.5 -340zM535 72q145 0 234 41.5t133 140t44 266.5v127q-45 -12 -111 -25t-134 -20.5t-134 -7.5q-128 0 -230 38t-164 127t-62 236v11q0 265 114 395.5t359 130.5
q153 0 253.5 -58t149.5 -175.5t49 -297.5v-481q0 -191 -55 -308t-165 -170.5t-281 -53.5q-167 0 -324 53q-22 8 -30.5 17.5t-8.5 27.5v10q0 41 49 25q149 -49 314 -49z" />
    <glyph glyph-name="colon" unicode=":" horiz-adv-x="324" 
d="M207 920q0 -16 -11.5 -27.5t-27.5 -11.5h-12q-16 0 -27.5 11.5t-11.5 27.5v151q0 15 11.5 27t27.5 12h12q17 0 28 -12t11 -27v-151zM207 27q0 -16 -11.5 -27.5t-27.5 -11.5h-12q-16 0 -27.5 11.5t-11.5 27.5v151q0 15 11.5 27t27.5 12h12q17 0 28 -12t11 -27v-151z" />
    <glyph glyph-name="semicolon" unicode=";" horiz-adv-x="324" 
d="M207 920q0 -16 -11.5 -27.5t-27.5 -11.5h-12q-16 0 -27.5 11.5t-11.5 27.5v151q0 15 11.5 27t27.5 12h12q17 0 28 -12t11 -27v-151zM221 195q0 -5 -4 -17l-129 -344q-9 -23 -16.5 -31t-22.5 -8h-24q-21 0 -21 21q0 6 4 18l109 344q11 39 41 39h39q24 0 24 -22z" />
    <glyph glyph-name="less" unicode="&#x3c;" 
d="M862 326q0 -13 -10 -23l-14 -14q-9 -8 -21 -8q-14 0 -33 14l-544 446q-31 25 -31 60t31 59l544 447q19 14 33 14q12 0 21 -8l14 -15q10 -10 10 -22q0 -18 -16 -31l-543 -444l543 -445q16 -13 16 -30z" />
    <glyph glyph-name="equal" unicode="=" 
d="M989 995q0 -32 -41 -32h-747q-41 0 -41 32v21q0 15 11.5 24t29.5 9h747q18 0 29.5 -8.5t11.5 -24.5v-21zM989 586q0 -33 -41 -33h-747q-41 0 -41 33v20q0 33 41 33h747q41 0 41 -33v-20z" />
    <glyph glyph-name="greater" unicode="&#x3e;" 
d="M967 801q0 -34 -31 -60l-545 -446q-17 -14 -33 -14q-12 0 -20 8l-14 14q-11 9 -11 23q0 18 17 30l542 445l-542 444q-17 12 -17 31q0 13 11 22l14 15q8 8 20 8q16 0 33 -14l545 -447q31 -25 31 -59z" />
    <glyph glyph-name="question" unicode="?" horiz-adv-x="827" 
d="M725 1219q0 -93 -46.5 -173.5t-178.5 -214.5l-62 -61q-54 -54 -79 -88t-34.5 -70t-9.5 -96v-123q0 -17 -11.5 -28t-27.5 -11h-12q-16 0 -27.5 11.5t-11.5 27.5v123q0 66 13 115.5t44 95t95 109.5l57 57q79 79 121 133.5t57 96t15 96.5v16q0 217 -265 217
q-74 0 -131 -13.5t-149 -41.5q-17 -5 -24 1.5t-7 22.5v17q0 16 8 24t27 15q147 55 283 55q68 0 128.5 -15.5t112.5 -50t83.5 -92.5t31.5 -139v-16zM315 27q0 -17 -11.5 -28t-27.5 -11h-12q-16 0 -27.5 11.5t-11.5 27.5v151q0 15 11.5 27t27.5 12h12q17 0 28 -11t11 -28v-151
z" />
    <glyph glyph-name="at" unicode="@" horiz-adv-x="1511" 
d="M1430 694q0 -281 -89 -421t-249 -140q-57 0 -97.5 17.5t-68.5 58.5q-41 -29 -110.5 -52.5t-139.5 -23.5q-121 0 -189.5 75.5t-68.5 192.5q0 21 2 37l22 242q14 136 96 218.5t234 82.5q124 0 252 -29q29 -7 29 -26v-4l-54 -570q-6 -73 16 -107t77 -34q117 0 183 116.5
t66 364.5q0 142 -34.5 245.5t-99.5 172t-162.5 103t-225.5 34.5q-172 0 -308 -71t-216 -195t-94 -274l-29 -291q-2 -21 -2 -60q0 -132 57 -241.5t176 -174.5t289 -65q116 0 258 10q24 1 31.5 -3.5t7.5 -20.5q0 -42 -43 -47q-119 -17 -262 -17q-141 0 -254.5 44t-192.5 124.5
t-117 180t-38 210.5q0 39 2 60l29 293q12 131 66 243.5t146.5 196.5t219.5 131t280 47q297 0 451 -168.5t154 -464.5zM961 883q-126 18 -193 18q-219 0 -240 -223l-22 -240q-2 -18 -2 -35q0 -84 47 -135t125 -51q76 0 129 19t102 51z" />
    <glyph glyph-name="A" unicode="A" horiz-adv-x="1227" 
d="M1169 25q0 -31 -32 -31h-25q-26 0 -33 26l-172 555h-590l-167 -555q-11 -26 -33 -26h-27q-31 0 -31 33q0 12 2 18l420 1387q16 48 50 74t83 26t83.5 -25.5t47.5 -72.5l420 -1389q4 -12 4 -20zM885 666l-223 743q-14 41 -48 41q-37 0 -47 -39l-225 -745h543z" />
    <glyph glyph-name="B" unicode="B" 
d="M1061 416q0 -430 -572 -430q-160 0 -307 16q-39 3 -39 39v1440q0 14 11.5 25.5t27.5 13.5q168 12 307 12q251 0 407.5 -81t156.5 -290v-22q0 -126 -63.5 -212.5t-180.5 -127.5q120 -35 186 -124t66 -224v-35zM963 1139v22q0 171 -128 231t-346 60q-69 0 -147.5 -3.5
t-108.5 -4.5v-600h371q199 0 279 81t80 214zM971 416v35q0 136 -83.5 220.5t-283.5 84.5h-371v-676q178 -12 256 -12q138 0 244.5 27t172 104.5t65.5 216.5z" />
    <glyph glyph-name="C" unicode="C" horiz-adv-x="1059" 
d="M604 -12q-103 0 -191 32t-159 107t-111.5 199.5t-40.5 298.5v270q0 175 40.5 299t111.5 199t159 107t191 32q105 0 203.5 -27t150.5 -55q20 -9 29.5 -17.5t9.5 -23.5v-18q0 -21 -9 -26t-30 1q-104 38 -179 59t-175 21q-88 0 -162.5 -30t-130.5 -96.5t-87 -173.5t-31 -251
v-270q0 -286 112.5 -418.5t298.5 -132.5q58 0 103 7.5t94 21t83.5 25.5t73.5 26q23 6 31 1t8 -26v-18q0 -15 -9.5 -23.5t-29.5 -17.5q-161 -82 -354 -82z" />
    <glyph glyph-name="D" unicode="D" horiz-adv-x="1214" 
d="M1112 633q0 -337 -160 -491t-438 -154q-240 0 -336 16q-15 3 -25 14t-10 25v1434q0 29 35 39q96 16 336 16q136 0 244.5 -34.5t187.5 -110t122.5 -199.5t43.5 -301v-254zM1022 633v254q0 210 -64.5 334.5t-177.5 177.5t-266 53q-92 0 -133.5 -2.5t-147.5 -9.5v-1364
q121 -8 281 -8q151 0 265 53.5t178.5 179t64.5 332.5z" />
    <glyph glyph-name="E" unicode="E" horiz-adv-x="1051" 
d="M958 35q0 -16 -10.5 -25.5t-27.5 -9.5h-529q-81 0 -135.5 22t-83.5 72t-29 135v1063q0 85 29.5 135.5t83.5 72.5t135 22h529q17 0 27.5 -9.5t10.5 -25.5v-17q0 -15 -10 -23.5t-28 -8.5h-529q-81 0 -119.5 -29t-38.5 -117v-450h687q18 0 28 -9t10 -24v-21
q0 -15 -10.5 -24.5t-27.5 -9.5h-687v-525q0 -89 38.5 -117t119.5 -28h529q18 0 28 -8.5t10 -24.5v-16z" />
    <glyph glyph-name="F" unicode="F" horiz-adv-x="1020" 
d="M958 788q0 -15 -10.5 -24.5t-27.5 -9.5h-687v-715q0 -16 -9.5 -27.5t-24.5 -11.5h-21q-15 0 -25 12t-10 27v1253q0 85 29.5 135.5t83.5 72.5t135 22h529q17 0 27.5 -9.5t10.5 -25.5v-17q0 -15 -10 -23.5t-28 -8.5h-529q-81 0 -119.5 -29t-38.5 -117v-450h687q18 0 28 -9
t10 -24v-21z" />
    <glyph glyph-name="G" unicode="G" horiz-adv-x="1163" 
d="M616 1448q-180 0 -301.5 -128t-121.5 -433v-254q0 -281 110.5 -420t312.5 -139q105 0 187 6.5t125 11.5v651q0 39 35 39h20q35 0 35 -39v-690q0 -15 -10.5 -26t-24.5 -13q-100 -12 -179 -19t-188 -7q-150 0 -265.5 68.5t-182 214t-66.5 362.5v254q0 240 74.5 384
t190.5 202.5t249 58.5q112 0 224 -28t161 -54q20 -9 29.5 -17.5t9.5 -23.5v-18q0 -21 -9 -26t-30 1q-93 34 -185 58t-200 24z" />
    <glyph glyph-name="H" unicode="H" horiz-adv-x="1284" 
d="M1141 39q0 -39 -35 -39h-19q-34 0 -34 39v733h-820v-733q0 -16 -9.5 -27.5t-24.5 -11.5h-21q-15 0 -25 12t-10 27v1444q0 15 10 27t25 12h21q15 0 24.5 -11t9.5 -28v-627h820v627q0 39 34 39h19q16 0 25.5 -11t9.5 -28v-1444z" />
    <glyph glyph-name="I" unicode="I" horiz-adv-x="418" 
d="M254 39q0 -17 -10 -28t-25 -11h-20q-15 0 -25 12t-10 27v1444q0 15 10 27t25 12h20q15 0 25 -11t10 -28v-1444z" />
    <glyph glyph-name="J" unicode="J" horiz-adv-x="418" 
d="M254 -123q0 -97 -27.5 -157.5t-91.5 -89.5t-176 -29h-29q-41 0 -41 28v21q0 31 41 31h29q86 0 129 15.5t59.5 56.5t16.5 124v1606q0 15 10 27t25 12h20q15 0 25 -11t10 -28v-1606z" />
    <glyph glyph-name="K" unicode="K" horiz-adv-x="1069" 
d="M1028 29q0 -33 -39 -33q-31 0 -47 16l-709 738v-711q0 -16 -9.5 -27.5t-24.5 -11.5h-21q-15 0 -25 12t-10 27v1444q0 15 12 27t27 12h13q15 0 26.5 -11.5t11.5 -27.5v-656l697 680q24 23 47 23q16 0 27.5 -10.5t11.5 -24.5q0 -22 -17 -37l-688 -667l703 -730
q14 -14 14 -32z" />
    <glyph glyph-name="L" unicode="L" horiz-adv-x="948" 
d="M897 35q0 -35 -39 -35h-467q-81 0 -135.5 22t-83.5 72t-29 135v1254q0 15 10 27t25 12h21q15 0 24.5 -11t9.5 -28v-1254q0 -89 38.5 -117t119.5 -28h467q39 0 39 -33v-16z" />
    <glyph glyph-name="M" unicode="M" horiz-adv-x="1454" 
d="M1311 39q0 -15 -10 -27t-25 -12h-21q-14 0 -24 12t-10 27v1393q0 14 -15 14q-12 0 -20 -19l-355 -747q-21 -43 -44.5 -58.5t-59.5 -15.5q-35 0 -59 15.5t-45 58.5l-355 747q-8 19 -20 19q-15 0 -15 -14v-1393q0 -16 -9.5 -27.5t-24.5 -11.5h-21q-15 0 -25 12t-10 27v1393
q0 50 28 75t77 25q65 0 94 -64l358 -751q13 -27 27 -27t27 27l358 751q29 64 94 64q50 0 77.5 -24.5t27.5 -75.5v-1393z" />
    <glyph glyph-name="N" unicode="N" horiz-adv-x="1292" 
d="M1149 92q0 -46 -26.5 -75t-65.5 -29q-77 0 -107 61l-690 1383q-7 14 -16 14q-11 0 -11 -14v-1393q0 -16 -9.5 -27.5t-24.5 -11.5h-21q-15 0 -25 12t-10 27v1393q0 46 27 73t66 27q77 0 106 -64l688 -1380q7 -14 17 -14t10 18v1391q0 17 9 28t24 11h24q35 0 35 -39v-1391z
" />
    <glyph glyph-name="O" unicode="O" horiz-adv-x="1253" 
d="M1151 633q0 -222 -66 -366t-184 -211.5t-274 -67.5t-274.5 67.5t-184.5 211.5t-66 366v254q0 165 38.5 289t108.5 203t166 116t212 37q118 0 213 -37t165 -116t108 -203t38 -289v-254zM1061 633v254q0 151 -32 260.5t-91 175t-136.5 94.5t-174.5 29q-434 0 -434 -559
v-254q0 -559 434 -559q95 0 174 29.5t138 96t90.5 174.5t31.5 259z" />
    <glyph glyph-name="P" unicode="P" horiz-adv-x="1065" 
d="M1014 1081q0 -233 -142 -335.5t-415 -102.5q-108 0 -224 8v-612q0 -16 -9.5 -27.5t-24.5 -11.5h-21q-15 0 -25 12t-10 27v1444q0 14 10 25.5t25 13.5q107 6 157.5 8t121.5 2q557 0 557 -416v-35zM924 1081v35q0 185 -114 260.5t-353 75.5q-134 0 -224 -6v-715
q128 -8 224 -8q123 0 208.5 20t144 63t86.5 109.5t28 165.5z" />
    <glyph glyph-name="Q" unicode="Q" horiz-adv-x="1253" 
d="M1151 633q0 -216 -62.5 -357t-179.5 -215q18 -60 62 -87t139 -27h90q41 0 41 -33v-14q0 -33 -41 -33h-90q-80 0 -136 15t-90.5 47.5t-56.5 90.5q-98 -32 -200 -32q-156 0 -274.5 67.5t-184.5 211.5t-66 366v254q0 165 38.5 289t108.5 203t166 116t212 37q118 0 213 -37
t165 -116t108 -203t38 -289v-254zM1061 633v254q0 151 -32 260.5t-91 175t-136.5 94.5t-174.5 29q-434 0 -434 -559v-254q0 -559 434 -559q95 0 174 29.5t138 96t90.5 174.5t31.5 259z" />
    <glyph glyph-name="R" unicode="R" horiz-adv-x="1184" 
d="M1112 31q0 -31 -33 -31h-26q-17 0 -31 18l-436 668h-33h-55q-81 1 -150 1.5t-115 0.5v-649q0 -16 -9.5 -27.5t-24.5 -11.5h-21q-15 0 -25 12t-10 27v1446q0 14 10 25.5t25 13.5q39 2 156.5 5t163.5 3q145 0 247 -22t170.5 -70t104 -129t35.5 -197v-10q0 -92 -23.5 -162.5
t-68 -118.5t-113.5 -79t-162 -48l414 -637q10 -17 10 -28zM965 1104v10q0 185 -113.5 258.5t-353.5 73.5q-182 0 -265 -8v-664q79 0 138.5 -0.5t126.5 -1.5q164 0 266 29.5t151.5 102t49.5 200.5z" />
    <glyph glyph-name="S" unicode="S" horiz-adv-x="1044" 
d="M973 379q0 -70 -20.5 -138t-70 -125t-141 -92.5t-225.5 -35.5q-113 0 -213.5 25t-173.5 59q-10 5 -19.5 10.5t-13.5 14t-4 18.5v28q0 13 9 21t30 -2q197 -88 385 -88q138 0 218.5 39t112.5 107t32 159q0 73 -30.5 123.5t-89.5 94t-196 128.5l-129 80q-110 68 -176 121
t-105.5 120t-39.5 154q0 180 125.5 256t293.5 76q70 0 146 -13t134 -31t85 -32q23 -10 29 -17.5t6 -23.5v-22q0 -39 -39 -23q-36 16 -89.5 32.5t-126 30t-145.5 13.5q-327 0 -327 -248q0 -63 30 -112t84 -92t162 -109l131 -80q123 -73 201 -134.5t119 -132t41 -159.5z" />
    <glyph glyph-name="T" unicode="T" horiz-adv-x="1128" 
d="M1087 1468q0 -30 -38 -30h-439v-1399q0 -17 -10 -28t-25 -11h-20q-15 0 -25 12t-10 27v1399h-440q-39 0 -39 30v19q0 16 11.5 25.5t27.5 9.5h969q17 0 27.5 -9.5t10.5 -25.5v-19z" />
    <glyph glyph-name="U" unicode="U" horiz-adv-x="1255" 
d="M1112 541q0 -267 -119 -410t-364 -143q-244 0 -365 143.5t-121 409.5v942q0 15 10 27t25 12h21q15 0 24.5 -11t9.5 -28v-942q0 -152 40 -256t128 -158.5t228 -54.5q207 0 300 119t93 350v942q0 15 10 27t25 12h20q15 0 25 -11t10 -28v-942z" />
    <glyph glyph-name="V" unicode="V" horiz-adv-x="1249" 
d="M1180 1485q0 -10 -2 -15l-420 -1382q-30 -100 -133 -100q-104 0 -133 100l-420 1382q-2 5 -2 15q0 37 34 37h23q11 0 20.5 -8.5t12.5 -20.5l418 -1378q12 -41 47 -41t47 41l418 1378q7 29 32 29h23q17 0 26 -10.5t9 -26.5z" />
    <glyph glyph-name="W" unicode="W" horiz-adv-x="1573" 
d="M1501 1485v-10l-252 -1391q-17 -96 -98 -96q-41 0 -62 23.5t-36 68.5l-250 792q-7 25 -17 25q-9 0 -16 -25l-250 -792q-15 -45 -36 -68.5t-62 -23.5q-81 0 -98 96l-252 1391v10q0 16 8.5 26.5t23.5 10.5h21q12 0 23 -9t14 -24l248 -1387q5 -30 12 -30t16 30l256 797
q26 80 92 80q67 0 93 -80l256 -797q5 -18 8.5 -24t7.5 -6q7 0 12 30l248 1387q3 15 14 24t23 9h20q16 0 24.5 -10.5t8.5 -26.5z" />
    <glyph glyph-name="X" unicode="X" horiz-adv-x="1192" 
d="M1128 33q0 -33 -32 -33h-17q-18 0 -32 18l-451 682l-451 -682q-13 -18 -32 -18h-19q-33 0 -33 33q0 16 9 26l473 719l-451 682q-10 17 -10 31q0 31 31 31h22q19 0 33 -19l426 -647l428 647q6 8 16.5 13.5t16.5 5.5h18q33 0 33 -33q0 -18 -8 -29l-451 -684l473 -717
q8 -11 8 -26z" />
    <glyph glyph-name="Y" unicode="Y" horiz-adv-x="1087" 
d="M1014 1493q0 -10 -6 -27l-324 -714q-45 -99 -96 -119v-594q0 -15 -10 -27t-25 -12h-21q-14 0 -24 12t-10 27v594q-51 20 -97 119l-323 714q-6 17 -6 27q0 29 34 29h21q9 0 18.5 -8t14.5 -17l321 -717q22 -46 33 -58.5t29 -12.5t29.5 13.5t31.5 57.5l322 717q13 25 32 25
h21q35 0 35 -29z" />
    <glyph glyph-name="Z" unicode="Z" horiz-adv-x="1178" 
d="M1075 33q0 -16 -12.5 -24.5t-30.5 -8.5h-803q-110 0 -110 88q0 40 22 74l777 1249q4 6 4 14q0 13 -17 13h-741q-43 0 -43 30v21q0 14 13 23.5t30 9.5h741q60 0 84 -17q35 -20 35 -65q0 -34 -23 -70l-782 -1264q-4 -8 -4 -14q0 -8 14 -8h803q43 0 43 -31v-20z" />
    <glyph glyph-name="bracketleft" unicode="[" horiz-adv-x="569" 
d="M549 -367q0 -32 -39 -32h-311q-15 0 -25 12t-10 27v1843q0 15 10 27t25 12h311q16 0 27.5 -9.5t11.5 -25.5v-17q0 -32 -39 -32h-256v-1753h256q16 0 27.5 -9.5t11.5 -25.5v-17z" />
    <glyph glyph-name="backslash" unicode="\" horiz-adv-x="625" 
d="M604 12q0 -24 -20 -24h-45q-21 0 -33 39l-481 1466q-2 4 -2 14q0 25 22 25h43q14 0 20 -9.5t13 -29.5l481 -1466q2 -4 2 -15z" />
    <glyph glyph-name="bracketright" unicode="]" horiz-adv-x="569" 
d="M406 -360q0 -15 -10 -27t-25 -12h-312q-39 0 -39 32v17q0 16 11.5 25.5t27.5 9.5h256v1753h-256q-39 0 -39 32v17q0 16 11.5 25.5t27.5 9.5h312q15 0 25 -12t10 -27v-1843z" />
    <glyph glyph-name="asciicircum" unicode="^" 
d="M926 1165q0 -18 -23 -18h-37q-11 0 -19 4.5t-15 13.5t-19 23l-240 285l-239 -285q-12 -14 -19 -23t-15 -13.5t-19 -4.5h-37q-23 0 -23 18q0 10 10 23l240 307q29 37 55 37h95q26 0 55 -37l239 -307q11 -13 11 -23z" />
    <glyph glyph-name="underscore" unicode="_" horiz-adv-x="911" 
d="M993 -168q0 -16 -11.5 -24.5t-29.5 -8.5h-993q-16 0 -28.5 9t-12.5 24v21q0 32 41 32h993q41 0 41 -32v-21z" />
    <glyph glyph-name="grave" unicode="`" horiz-adv-x="635" 
d="M414 1280q0 -14 -19 -14h-45q-11 0 -16.5 3.5t-13.5 13t-15 17.5l-219 263q-8 8 -8 16q0 14 22 14h54q21 0 47 -30l205 -263q8 -8 8 -20z" />
    <glyph glyph-name="a" unicode="a" horiz-adv-x="958" 
d="M459 1032q-67 0 -139.5 -16t-126.5 -37q-43 -17 -43 20v13q0 31 38 45q52 19 125 36t150 17q137 0 218.5 -39.5t118 -122.5t36.5 -215v-659q0 -19 -6.5 -29t-24.5 -14q-156 -43 -309 -43q-152 0 -244 35t-131 107t-39 187v27q0 165 115.5 240t390.5 75h157v74
q0 120 -30 185.5t-91 89.5t-165 24zM745 92v486h-157q-232 0 -323 -51t-91 -183v-27q0 -89 26 -141.5t95.5 -80t200.5 -27.5q67 0 137.5 8t111.5 16z" />
    <glyph glyph-name="b" unicode="b" horiz-adv-x="991" 
d="M899 485q0 -152 -42.5 -263.5t-132 -172.5t-226.5 -61q-159 0 -344 39q-17 4 -24 12.5t-7 26.5v1417q0 15 10 27t25 12h20q15 0 25 -11t10 -28v-404q134 31 285 31q200 0 300.5 -123.5t100.5 -365.5v-136zM809 485v136q0 139 -31 228.5t-99.5 135t-180.5 45.5
q-72 0 -147 -6.5t-138 -19.5v-910q160 -26 285 -26q166 0 238.5 105t72.5 312z" />
    <glyph glyph-name="c" unicode="c" horiz-adv-x="854" 
d="M498 -12q-142 0 -232.5 62.5t-132 172.5t-41.5 260v138q0 149 41.5 257.5t133 170t231.5 61.5q68 0 135.5 -16.5t111.5 -36.5q21 -8 30 -18t9 -27v-13q0 -37 -43 -20q-132 51 -243 51q-169 0 -242.5 -104t-73.5 -305v-138q0 -133 31 -225t100.5 -141t184.5 -49
q117 0 243 51q43 17 43 -21v-12q0 -18 -9.5 -27.5t-29.5 -17.5q-48 -22 -115 -37.5t-132 -15.5z" />
    <glyph glyph-name="d" unicode="d" horiz-adv-x="991" 
d="M868 66q0 -20 -6 -27t-24 -12q-185 -39 -344 -39q-138 0 -227.5 61.5t-132 172.5t-42.5 263v136q0 489 402 489q150 0 284 -31v404q0 15 10 27t25 12h21q15 0 24.5 -11t9.5 -28v-1417zM778 94v910q-63 13 -138 19.5t-146 6.5q-165 0 -238.5 -101.5t-73.5 -307.5v-136
q0 -205 72.5 -311t239.5 -106q126 0 284 26z" />
    <glyph glyph-name="e" unicode="e" horiz-adv-x="1006" 
d="M913 567q0 -17 -11.5 -28t-27.5 -11h-692v-43q0 -236 95.5 -326.5t261.5 -90.5q149 0 319 71q16 7 25.5 2t9.5 -16v-25q0 -16 -7.5 -24t-31.5 -21q-36 -17 -88 -32t-115 -25t-112 -10q-201 0 -324 114t-123 383v136q0 142 48 253t142 173.5t224 62.5q136 0 228 -60
t135.5 -170t43.5 -257v-56zM823 610v13q0 203 -74 305t-243 102q-111 0 -183 -50.5t-106.5 -143t-34.5 -215.5v-11h641z" />
    <glyph glyph-name="f" unicode="f" horiz-adv-x="731" 
d="M680 1479q0 -27 -43 -27h-102q-75 0 -108.5 -35.5t-33.5 -126.5v-190h244q18 0 28.5 -9t10.5 -24v-18q0 -33 -39 -33h-244v-977q0 -16 -10.5 -27.5t-26.5 -11.5h-14q-16 0 -27.5 11.5t-11.5 27.5v977h-203q-39 0 -39 33v18q0 15 11 24t28 9h203v190q0 242 232 242
q66 0 106 -6q39 -5 39 -33v-14z" />
    <glyph glyph-name="g" unicode="g" horiz-adv-x="1053" 
d="M868 -2q0 -121 -23.5 -198.5t-69.5 -121t-115 -60.5t-162 -17q-178 0 -318 59q-24 10 -31.5 17.5t-7.5 27.5v10q0 36 43 23q67 -22 149 -39.5t165 -17.5q87 0 138.5 12.5t84 47.5t46 95t13.5 162v22q-39 -13 -126.5 -22.5t-137.5 -9.5q-183 0 -303.5 98.5t-120.5 394.5
v140q0 176 46.5 285t140 156.5t237.5 47.5q47 0 109 -6t116.5 -14.5t96.5 -18.5q30 -7 30 -39v-1034zM778 98v906q-158 26 -262 26q-121 0 -193 -34t-106.5 -123.5t-34.5 -251.5v-140q0 -168 42 -259t113 -122.5t179 -31.5q53 0 137.5 9.5t124.5 20.5z" />
    <glyph glyph-name="h" unicode="h" horiz-adv-x="993" 
d="M881 39q0 -39 -35 -39h-21q-14 0 -23 11.5t-9 27.5v678q0 156 -72 234.5t-232 78.5q-151 0 -276 -37v-954q0 -17 -10 -28t-25 -11h-20q-15 0 -25 12t-10 27v1444q0 15 10 27t25 12h20q15 0 25 -11t10 -28v-410q60 17 134.5 27t141.5 10q138 0 225 -49t127 -137.5
t40 -206.5v-678z" />
    <glyph glyph-name="i" unicode="i" horiz-adv-x="377" 
d="M233 1341q0 -16 -11 -27t-27 -11h-13q-16 0 -27.5 11.5t-11.5 26.5v152q0 15 12 27t27 12h13q15 0 26.5 -11.5t11.5 -27.5v-152zM233 39q0 -16 -11.5 -27.5t-26.5 -11.5h-13q-15 0 -27 12t-12 27v1022q0 15 12 27t27 12h13q15 0 26.5 -11.5t11.5 -27.5v-1022z" />
    <glyph glyph-name="j" unicode="j" horiz-adv-x="377" 
d="M233 1341q0 -16 -11 -27t-27 -11h-13q-16 0 -27.5 11.5t-11.5 26.5v152q0 15 12 27t27 12h13q15 0 26.5 -11.5t11.5 -27.5v-152zM233 -176q0 -127 -51 -175t-159 -48q-41 0 -86 6q-21 3 -28 9.5t-7 18.5v19q0 24 43 24h78q70 0 95 28t25 118v1237q0 17 9.5 28t23.5 11h23
q16 0 25 -11t9 -28v-1237z" />
    <glyph glyph-name="k" unicode="k" horiz-adv-x="868" 
d="M809 20q0 -32 -39 -32q-37 0 -61 24l-496 531v-504q0 -16 -12 -27.5t-27 -11.5h-12q-15 0 -27 12t-12 27v1444q0 15 12 27t27 12h12q15 0 27 -11t12 -28v-862l504 471q21 18 49 18q19 0 30 -11t11 -26q0 -18 -14 -31l-502 -458l504 -533q14 -17 14 -31z" />
    <glyph glyph-name="l" unicode="l" horiz-adv-x="377" 
d="M233 39q0 -16 -9.5 -27.5t-24.5 -11.5h-21q-15 0 -25 12t-10 27v1444q0 15 10 27t25 12h21q15 0 24.5 -11t9.5 -28v-1444z" />
    <glyph glyph-name="m" unicode="m" horiz-adv-x="1487" 
d="M1364 39q0 -39 -35 -39h-20q-35 0 -35 39v733q0 145 -58 201.5t-182 56.5q-131 0 -276 -69q30 -80 30 -181v-741q0 -39 -30 -39h-31q-29 0 -29 39v741q0 92 -21.5 147t-65.5 79t-119 24q-70 0 -159 -12t-120 -21v-958q0 -39 -31 -39h-28q-31 0 -31 39v983q0 31 37 41
q36 9 91.5 20t118 19t122.5 8q161 0 227 -84q175 84 330 84q147 0 231 -79.5t84 -258.5v-733z" />
    <glyph glyph-name="n" unicode="n" horiz-adv-x="1026" 
d="M903 39q0 -16 -11.5 -27.5t-27.5 -11.5h-14q-16 0 -26.5 11.5t-10.5 27.5v680q0 116 -31.5 184t-97.5 97.5t-172 29.5q-61 0 -158 -12t-141 -23v-956q0 -16 -12 -27.5t-27 -11.5h-12q-15 0 -27 12t-12 27v983q0 33 37 41q77 20 181 33.5t175 13.5q193 0 290 -92t97 -299
v-680z" />
    <glyph glyph-name="o" unicode="o" horiz-adv-x="1028" 
d="M936 477q0 -154 -47 -264t-142 -167.5t-233 -57.5t-233 57.5t-142 167.5t-47 264v144q0 154 47 264t142 167.5t233 57.5t233 -57.5t142 -167.5t47 -264v-144zM846 477v144q0 128 -33.5 219.5t-107 140.5t-191.5 49t-191.5 -49t-107 -140.5t-33.5 -219.5v-144
q0 -197 79 -303t253 -106t253 106t79 303z" />
    <glyph glyph-name="p" unicode="p" horiz-adv-x="991" 
d="M899 477q0 -161 -44.5 -270t-134 -164t-222.5 -55q-148 0 -285 30v-378q0 -17 -10 -28t-25 -11h-20q-15 0 -25 12t-10 27v1392q0 18 6 26t25 13q185 39 344 39q137 0 226.5 -61.5t132 -173t42.5 -263.5v-135zM809 477v135q0 209 -72.5 313.5t-238.5 104.5
q-72 0 -141.5 -7t-143.5 -19v-910q127 -26 285 -26q112 0 180.5 45.5t99.5 135t31 228.5z" />
    <glyph glyph-name="q" unicode="q" horiz-adv-x="991" 
d="M868 -360q0 -17 -9.5 -28t-24.5 -11h-21q-15 0 -25 12t-10 27v378q-51 -11 -138 -20.5t-146 -9.5q-402 0 -402 489v135q0 152 42.5 263.5t132 173t227.5 61.5q159 0 344 -39q30 -7 30 -39v-1392zM778 94v910q-70 12 -140.5 19t-143.5 7q-167 0 -239.5 -105.5
t-72.5 -312.5v-135q0 -99 17.5 -176t54.5 -129.5t97 -78t143 -25.5q157 0 284 26z" />
    <glyph glyph-name="r" unicode="r" horiz-adv-x="592" 
d="M512 1030q-61 0 -158 -12t-141 -23v-956q0 -16 -12 -27.5t-27 -11.5h-12q-15 0 -27 12t-12 27v983q0 33 37 41q78 20 180 33.5t172 13.5q41 0 41 -31v-16q0 -33 -41 -33z" />
    <glyph glyph-name="s" unicode="s" horiz-adv-x="860" 
d="M778 272q0 -152 -96.5 -218t-257.5 -66q-71 0 -157.5 17t-139.5 38q-31 14 -38 21t-7 26v8q0 22 11 27.5t36 -2.5q77 -27 150 -42t149 -15q124 0 192 45t68 161q0 63 -44 108.5t-173 115.5l-131 71q-90 50 -140.5 88t-79 87t-28.5 116q0 91 43 147t116 80.5t163 24.5
q84 0 163.5 -16t133.5 -37q19 -7 24.5 -13.5t5.5 -23.5v-12q0 -41 -43 -27q-54 17 -130.5 33t-153.5 16q-113 0 -172.5 -35.5t-59.5 -136.5q0 -63 47 -108.5t152 -104.5l137 -76q142 -78 201 -139t59 -158z" />
    <glyph glyph-name="t" unicode="t" horiz-adv-x="737" 
d="M676 27q0 -28 -35 -33q-46 -6 -106 -6q-118 0 -175 48.5t-57 172.5v807h-203q-39 0 -39 33v20q0 31 39 31h203v211q0 39 35 39h22q15 0 24 -11t9 -28v-211h244q39 0 39 -31v-20q0 -33 -39 -33h-244v-807q0 -86 33.5 -113.5t108.5 -27.5h98q43 0 43 -29v-12z" />
    <glyph glyph-name="u" unicode="u" horiz-adv-x="1026" 
d="M123 1061q0 16 11.5 27.5t27.5 11.5h14q16 0 26.5 -11.5t10.5 -27.5v-680q0 -172 70 -241.5t231 -69.5q61 0 158 12t141 22v957q0 15 12 27t27 12h12q15 0 27 -11t12 -28v-983q0 -33 -37 -41q-74 -19 -182 -33t-174 -14q-191 0 -289 92t-98 299v680z" />
    <glyph glyph-name="v" unicode="v" horiz-adv-x="942" 
d="M883 1069q0 -14 -2 -20l-269 -932q-21 -77 -54.5 -103t-84.5 -26q-50 0 -86 27t-57 102l-269 932q-2 6 -2 16q0 16 9.5 25.5t23.5 9.5h21q26 0 37 -37l262 -924q22 -73 61 -73q19 0 31 13.5t26 59.5l263 924q10 37 36 37h25q29 0 29 -31z" />
    <glyph glyph-name="w" unicode="w" horiz-adv-x="1499" 
d="M1419 1061q0 -3 -0.5 -5t-1.5 -5l-225 -953q-9 -39 -22 -63.5t-34 -35.5t-51 -11q-45 0 -66 27.5t-38 88.5l-217 779q-4 18 -12 18h-2h-2q-8 0 -13 -18l-217 -779q-17 -61 -37 -88.5t-67 -27.5t-69 24t-38 86l-225 953q0 4 -0.5 6t-1.5 4q0 16 11.5 27.5t27.5 11.5h12
q10 0 20 -9t13 -20l221 -952q10 -51 25 -51h4q12 0 26 49l222 790q19 74 88 74q67 0 88 -74l221 -790q14 -49 26 -49h5q14 0 24 51l221 952q3 11 13 20t20 9h12q16 0 27.5 -11.5t11.5 -27.5z" />
    <glyph glyph-name="x" unicode="x" horiz-adv-x="969" 
d="M911 29q0 -29 -28 -29h-17q-26 0 -39 16l-340 476l-333 -476q-14 -16 -23 -16h-35q-28 0 -28 25q0 15 10 28l360 510l-348 488q-8 12 -8 22q0 27 37 27h12q29 0 39 -17l324 -450l313 446q6 10 17.5 15.5t21.5 5.5h18q31 0 31 -25q0 -12 -14 -35l-338 -481l362 -508
q6 -9 6 -22z" />
    <glyph glyph-name="y" unicode="y" horiz-adv-x="954" 
d="M895 1065q0 -10 -2 -16l-336 -1164q-32 -112 -72 -172.5t-101 -86t-159 -25.5q-53 0 -127 12q-41 7 -41 29v22q0 29 31 29h12q93 -12 133 -12q57 0 95 10.5t65 35t45.5 65t38.5 112.5l27 96h-29q-50 0 -76.5 22t-48.5 93l-276 936q-2 4 -2 14q0 35 34 35h19
q9 0 19.5 -9.5t13.5 -19.5l276 -942q13 -45 47 -45h47l281 989q8 27 37 27h18q31 0 31 -35z" />
    <glyph glyph-name="z" unicode="z" horiz-adv-x="872" 
d="M811 33q0 -16 -11 -24.5t-30 -8.5h-594q-57 0 -86 24t-29 60q0 43 25 76l612 817q9 14 9 20q0 19 -29 19h-539q-41 0 -41 31v20q0 14 12 23.5t29 9.5h541q48 0 81.5 -24t33.5 -64q0 -49 -33 -92l-594 -797q-12 -20 -12 -25q0 -14 20 -14h594q41 0 41 -31v-20z" />
    <glyph glyph-name="braceleft" unicode="{" horiz-adv-x="573" 
d="M553 -365q0 -34 -39 -34h-94q-97 0 -151 20t-77.5 69t-23.5 136v418q0 78 -9.5 123t-36 81t-81.5 76v74q55 40 81.5 76t36 81.5t9.5 123.5v417q0 87 24 135.5t78.5 69.5t149.5 21h94q16 0 27.5 -9.5t11.5 -25.5v-17q0 -32 -39 -32h-94q-69 0 -103.5 -11t-46.5 -41
t-12 -90v-417q0 -114 -27.5 -186.5t-103.5 -133.5q74 -59 102.5 -131.5t28.5 -183.5v-418q0 -60 12 -90t44.5 -40.5t105.5 -10.5h94q18 0 28.5 -9t10.5 -24v-17z" />
    <glyph glyph-name="bar" unicode="|" horiz-adv-x="418" 
d="M254 -360q0 -17 -10 -28t-25 -11h-20q-15 0 -25 12t-10 27v1843q0 15 10 27t25 12h20q15 0 25 -11t10 -28v-1843z" />
    <glyph glyph-name="braceright" unicode="}" horiz-adv-x="573" 
d="M532 524q-56 -41 -81.5 -76.5t-35 -80.5t-9.5 -123v-418q0 -87 -23.5 -135.5t-78 -69t-150.5 -20.5h-95q-39 0 -39 34v17q0 15 11 24t28 9h95q73 0 105 10.5t44 40.5t12 90v418q0 111 28.5 183.5t102.5 131.5q-52 42 -80.5 87.5t-39.5 100.5t-11 132v417q0 90 -29.5 116
t-131.5 26h-95q-39 0 -39 32v17q0 16 11.5 25.5t27.5 9.5h95q94 0 149 -21t79 -69.5t24 -135.5v-417q0 -78 9.5 -123.5t35 -81t81.5 -76.5v-74z" />
    <glyph glyph-name="asciitilde" unicode="~" 
d="M954 940q0 -213 -184 -213q-46 0 -83 15.5t-75 50.5l-116 112q-34 34 -61 53t-52 19q-111 0 -111 -139v-62q0 -23 -3.5 -31t-18.5 -8h-31q-26 0 -26 39v62q0 108 50 162.5t138 54.5q85 0 158 -70l116 -113q68 -63 113 -63q56 0 81 28.5t25 102.5v64q0 20 4 28t19 8h31
q26 0 26 -36v-64z" />
    <glyph glyph-name="Adieresis" unicode="&#xc4;" horiz-adv-x="1227" 
d="M1169 25q0 -31 -32 -31h-25q-26 0 -33 26l-172 555h-590l-167 -555q-11 -26 -33 -26h-27q-31 0 -31 33q0 12 2 18l420 1387q16 48 50 74t83 26t83.5 -25.5t47.5 -72.5l420 -1389q4 -12 4 -20zM885 666l-223 743q-14 41 -48 41q-37 0 -47 -39l-225 -745h543zM809 1706
q0 -17 -11.5 -28t-27.5 -11h-12q-16 0 -27.5 11.5t-11.5 27.5v151q0 15 11.5 27t27.5 12h12q17 0 28 -11t11 -28v-151zM502 1706q0 -16 -11.5 -27.5t-27.5 -11.5h-12q-16 0 -27.5 11.5t-11.5 27.5v151q0 15 11.5 27t27.5 12h12q17 0 28 -12t11 -27v-151z" />
    <glyph glyph-name="Aring" unicode="&#xc5;" horiz-adv-x="1227" 
d="M1169 25q0 -31 -32 -31h-25q-26 0 -33 26l-172 555h-590l-167 -555q-11 -26 -33 -26h-27q-31 0 -31 33q0 12 2 18l420 1387q16 48 50 74t83 26t83.5 -25.5t47.5 -72.5l420 -1389q4 -12 4 -20zM885 666l-223 743q-14 41 -48 41q-37 0 -47 -39l-225 -745h543zM803 1778
q0 -79 -57 -135t-134 -56q-76 0 -133 57t-57 134q0 78 56 134t134 56q79 0 135 -55t56 -135zM731 1778q0 50 -34 84t-85 34q-49 0 -82.5 -34.5t-33.5 -83.5q0 -50 33.5 -84.5t82.5 -34.5q51 0 85 34t34 85z" />
    <glyph glyph-name="Ccedilla" unicode="&#xc7;" horiz-adv-x="1059" 
d="M604 -12q-103 0 -191 32t-159 107t-111.5 199.5t-40.5 298.5v270q0 175 40.5 299t111.5 199t159 107t191 32q105 0 203.5 -27t150.5 -55q20 -9 29.5 -17.5t9.5 -23.5v-18q0 -21 -9 -26t-30 1q-104 38 -179 59t-175 21q-88 0 -162.5 -30t-130.5 -96.5t-87 -173.5t-31 -251
v-270q0 -286 112.5 -418.5t298.5 -132.5q58 0 103 7.5t94 21t83.5 25.5t73.5 26q23 6 31 1t8 -26v-18q0 -15 -9.5 -23.5t-29.5 -17.5q-161 -82 -354 -82zM713 -78q0 -8 -8 -16l-220 -262q-3 -4 -12.5 -16t-16 -15.5t-16.5 -3.5h-45q-18 0 -18 14q0 13 8 21l205 262
q15 18 23.5 24.5t23.5 6.5h53q23 0 23 -15z" />
    <glyph glyph-name="Eacute" unicode="&#xc9;" horiz-adv-x="1051" 
d="M958 35q0 -16 -10.5 -25.5t-27.5 -9.5h-529q-81 0 -135.5 22t-83.5 72t-29 135v1063q0 85 29.5 135.5t83.5 72.5t135 22h529q17 0 27.5 -9.5t10.5 -25.5v-17q0 -15 -10 -23.5t-28 -8.5h-529q-81 0 -119.5 -29t-38.5 -117v-450h687q18 0 28 -9t10 -24v-21
q0 -15 -10.5 -24.5t-27.5 -9.5h-687v-525q0 -89 38.5 -117t119.5 -28h529q18 0 28 -8.5t10 -24.5v-16zM805 1940q0 -8 -8 -16l-219 -263q-13 -16 -22 -25t-23 -9h-45q-19 0 -19 14q0 12 8 20l205 263q26 30 47 30h54q22 0 22 -14z" />
    <glyph glyph-name="Ntilde" unicode="&#xd1;" horiz-adv-x="1292" 
d="M1149 92q0 -46 -26.5 -75t-65.5 -29q-77 0 -107 61l-690 1383q-7 14 -16 14q-11 0 -11 -14v-1393q0 -16 -9.5 -27.5t-24.5 -11.5h-21q-15 0 -25 12t-10 27v1393q0 46 27 73t66 27q77 0 106 -64l688 -1380q7 -14 17 -14t10 18v1391q0 17 9 28t24 11h24q35 0 35 -39v-1391z
M975 1801q0 -92 -42.5 -139.5t-117.5 -47.5q-80 0 -137 53l-99 97q-30 30 -49.5 43.5t-48.5 13.5q-84 0 -84 -109v-53q0 -33 -20 -33h-35q-23 0 -23 33v53q0 91 43.5 139t118.5 48q78 0 135 -53l99 -97q57 -57 100 -57q82 0 82 109v53q0 33 20 33h35q23 0 23 -33v-53z" />
    <glyph glyph-name="Odieresis" unicode="&#xd6;" horiz-adv-x="1253" 
d="M1151 633q0 -222 -66 -366t-184 -211.5t-274 -67.5t-274.5 67.5t-184.5 211.5t-66 366v254q0 165 38.5 289t108.5 203t166 116t212 37q118 0 213 -37t165 -116t108 -203t38 -289v-254zM1061 633v254q0 151 -32 260.5t-91 175t-136.5 94.5t-174.5 29q-434 0 -434 -559
v-254q0 -559 434 -559q95 0 174 29.5t138 96t90.5 174.5t31.5 259zM815 1704q0 -17 -11.5 -28t-27.5 -11h-12q-16 0 -27.5 11.5t-11.5 27.5v151q0 15 11.5 27t27.5 12h12q17 0 28 -11t11 -28v-151zM508 1704q0 -16 -11.5 -27.5t-27.5 -11.5h-12q-16 0 -27.5 11.5t-11.5 27.5
v151q0 15 11.5 27t27.5 12h12q17 0 28 -12t11 -27v-151z" />
    <glyph glyph-name="Udieresis" unicode="&#xdc;" horiz-adv-x="1255" 
d="M1112 541q0 -267 -119 -410t-364 -143q-244 0 -365 143.5t-121 409.5v942q0 15 10 27t25 12h21q15 0 24.5 -11t9.5 -28v-942q0 -152 40 -256t128 -158.5t228 -54.5q207 0 300 119t93 350v942q0 15 10 27t25 12h20q15 0 25 -11t10 -28v-942zM823 1706q0 -17 -11.5 -28
t-27.5 -11h-12q-16 0 -27.5 11.5t-11.5 27.5v151q0 15 11.5 27t27.5 12h12q17 0 28 -11t11 -28v-151zM516 1706q0 -16 -11.5 -27.5t-27.5 -11.5h-12q-16 0 -27.5 11.5t-11.5 27.5v151q0 15 11.5 27t27.5 12h12q17 0 28 -12t11 -27v-151z" />
    <glyph glyph-name="aacute" unicode="&#xe1;" horiz-adv-x="958" 
d="M459 1032q-67 0 -139.5 -16t-126.5 -37q-43 -17 -43 20v13q0 31 38 45q52 19 125 36t150 17q137 0 218.5 -39.5t118 -122.5t36.5 -215v-659q0 -19 -6.5 -29t-24.5 -14q-156 -43 -309 -43q-152 0 -244 35t-131 107t-39 187v27q0 165 115.5 240t390.5 75h157v74
q0 120 -30 185.5t-91 89.5t-165 24zM745 92v486h-157q-232 0 -323 -51t-91 -183v-27q0 -89 26 -141.5t95.5 -80t200.5 -27.5q67 0 137.5 8t111.5 16zM715 1579q0 -8 -8 -16l-219 -263q-13 -16 -22 -25t-23 -9h-45q-19 0 -19 14q0 12 8 20l205 263q26 30 47 30h54
q22 0 22 -14z" />
    <glyph glyph-name="agrave" unicode="&#xe0;" horiz-adv-x="958" 
d="M459 1032q-67 0 -139.5 -16t-126.5 -37q-43 -17 -43 20v13q0 31 38 45q52 19 125 36t150 17q137 0 218.5 -39.5t118 -122.5t36.5 -215v-659q0 -19 -6.5 -29t-24.5 -14q-156 -43 -309 -43q-152 0 -244 35t-131 107t-39 187v27q0 165 115.5 240t390.5 75h157v74
q0 120 -30 185.5t-91 89.5t-165 24zM745 92v486h-157q-232 0 -323 -51t-91 -183v-27q0 -89 26 -141.5t95.5 -80t200.5 -27.5q67 0 137.5 8t111.5 16zM598 1280q0 -14 -19 -14h-45q-11 0 -16.5 3.5t-13.5 13t-15 17.5l-219 263q-8 8 -8 16q0 14 22 14h54q21 0 47 -30
l205 -263q8 -8 8 -20z" />
    <glyph glyph-name="acircumflex" unicode="&#xe2;" horiz-adv-x="958" 
d="M459 1032q-67 0 -139.5 -16t-126.5 -37q-43 -17 -43 20v13q0 31 38 45q52 19 125 36t150 17q137 0 218.5 -39.5t118 -122.5t36.5 -215v-659q0 -19 -6.5 -29t-24.5 -14q-156 -43 -309 -43q-152 0 -244 35t-131 107t-39 187v27q0 165 115.5 240t390.5 75h157v74
q0 120 -30 185.5t-91 89.5t-165 24zM745 92v486h-157q-232 0 -323 -51t-91 -183v-27q0 -89 26 -141.5t95.5 -80t200.5 -27.5q67 0 137.5 8t111.5 16zM784 1280q0 -14 -18 -14h-45q-14 0 -21 6.5t-24 27.5l-193 232l-192 -232q-13 -16 -22 -25t-23 -9h-45q-19 0 -19 14
q0 12 9 20l204 263q26 30 47 30h82q22 0 48 -30l204 -263q8 -8 8 -20z" />
    <glyph glyph-name="adieresis" unicode="&#xe4;" horiz-adv-x="958" 
d="M459 1032q-67 0 -139.5 -16t-126.5 -37q-43 -17 -43 20v13q0 31 38 45q52 19 125 36t150 17q137 0 218.5 -39.5t118 -122.5t36.5 -215v-659q0 -19 -6.5 -29t-24.5 -14q-156 -43 -309 -43q-152 0 -244 35t-131 107t-39 187v27q0 165 115.5 240t390.5 75h157v74
q0 120 -30 185.5t-91 89.5t-165 24zM745 92v486h-157q-232 0 -323 -51t-91 -183v-27q0 -89 26 -141.5t95.5 -80t200.5 -27.5q67 0 137.5 8t111.5 16zM678 1369q0 -17 -11.5 -28t-27.5 -11h-12q-16 0 -27.5 11.5t-11.5 27.5v151q0 15 11.5 27t27.5 12h12q17 0 28 -11t11 -28
v-151zM371 1369q0 -16 -11.5 -27.5t-27.5 -11.5h-12q-16 0 -27.5 11.5t-11.5 27.5v151q0 15 11.5 27t27.5 12h12q17 0 28 -12t11 -27v-151z" />
    <glyph glyph-name="atilde" unicode="&#xe3;" horiz-adv-x="958" 
d="M459 1032q-67 0 -139.5 -16t-126.5 -37q-43 -17 -43 20v13q0 31 38 45q52 19 125 36t150 17q137 0 218.5 -39.5t118 -122.5t36.5 -215v-659q0 -19 -6.5 -29t-24.5 -14q-156 -43 -309 -43q-152 0 -244 35t-131 107t-39 187v27q0 165 115.5 240t390.5 75h157v74
q0 120 -30 185.5t-91 89.5t-165 24zM745 92v486h-157q-232 0 -323 -51t-91 -183v-27q0 -89 26 -141.5t95.5 -80t200.5 -27.5q67 0 137.5 8t111.5 16zM797 1473q0 -92 -42.5 -139.5t-117.5 -47.5q-80 0 -137 53l-99 97q-30 30 -49.5 43.5t-48.5 13.5q-84 0 -84 -109v-53
q0 -33 -20 -33h-35q-23 0 -23 33v53q0 91 43.5 139t118.5 48q78 0 135 -53l99 -97q57 -57 100 -57q82 0 82 109v53q0 33 20 33h35q23 0 23 -33v-53z" />
    <glyph glyph-name="aring" unicode="&#xe5;" horiz-adv-x="958" 
d="M459 1032q-67 0 -139.5 -16t-126.5 -37q-43 -17 -43 20v13q0 31 38 45q52 19 125 36t150 17q137 0 218.5 -39.5t118 -122.5t36.5 -215v-659q0 -19 -6.5 -29t-24.5 -14q-156 -43 -309 -43q-152 0 -244 35t-131 107t-39 187v27q0 165 115.5 240t390.5 75h157v74
q0 120 -30 185.5t-91 89.5t-165 24zM745 92v486h-157q-232 0 -323 -51t-91 -183v-27q0 -89 26 -141.5t95.5 -80t200.5 -27.5q67 0 137.5 8t111.5 16zM680 1430q0 -79 -57 -135t-134 -56q-76 0 -133 57t-57 134q0 78 56 134t134 56q79 0 135 -55t56 -135zM608 1430
q0 50 -34 84t-85 34q-49 0 -82.5 -34.5t-33.5 -83.5q0 -50 33.5 -84.5t82.5 -34.5q51 0 85 34t34 85z" />
    <glyph glyph-name="ccedilla" unicode="&#xe7;" horiz-adv-x="854" 
d="M498 -12q-142 0 -232.5 62.5t-132 172.5t-41.5 260v138q0 149 41.5 257.5t133 170t231.5 61.5q68 0 135.5 -16.5t111.5 -36.5q21 -8 30 -18t9 -27v-13q0 -37 -43 -20q-132 51 -243 51q-169 0 -242.5 -104t-73.5 -305v-138q0 -133 31 -225t100.5 -141t184.5 -49
q117 0 243 51q43 17 43 -21v-12q0 -18 -9.5 -27.5t-29.5 -17.5q-48 -22 -115 -37.5t-132 -15.5zM569 -78q0 -8 -8 -16l-219 -262q-20 -24 -25.5 -29.5t-19.5 -5.5h-45q-19 0 -19 14q0 12 9 21l204 262q20 22 26.5 26.5t21.5 4.5h53q22 0 22 -15z" />
    <glyph glyph-name="eacute" unicode="&#xe9;" horiz-adv-x="1006" 
d="M913 567q0 -17 -11.5 -28t-27.5 -11h-692v-43q0 -236 95.5 -326.5t261.5 -90.5q149 0 319 71q16 7 25.5 2t9.5 -16v-25q0 -16 -7.5 -24t-31.5 -21q-36 -17 -88 -32t-115 -25t-112 -10q-201 0 -324 114t-123 383v136q0 142 48 253t142 173.5t224 62.5q136 0 228 -60
t135.5 -170t43.5 -257v-56zM823 610v13q0 203 -74 305t-243 102q-111 0 -183 -50.5t-106.5 -143t-34.5 -215.5v-11h641zM762 1579q0 -8 -8 -16l-219 -263q-13 -16 -22 -25t-23 -9h-45q-19 0 -19 14q0 12 8 20l205 263q26 30 47 30h54q22 0 22 -14z" />
    <glyph glyph-name="egrave" unicode="&#xe8;" horiz-adv-x="1006" 
d="M913 567q0 -17 -11.5 -28t-27.5 -11h-692v-43q0 -236 95.5 -326.5t261.5 -90.5q149 0 319 71q16 7 25.5 2t9.5 -16v-25q0 -16 -7.5 -24t-31.5 -21q-36 -17 -88 -32t-115 -25t-112 -10q-201 0 -324 114t-123 383v136q0 142 48 253t142 173.5t224 62.5q136 0 228 -60
t135.5 -170t43.5 -257v-56zM823 610v13q0 203 -74 305t-243 102q-111 0 -183 -50.5t-106.5 -143t-34.5 -215.5v-11h641zM598 1280q0 -14 -19 -14h-45q-11 0 -16.5 3.5t-13.5 13t-15 17.5l-219 263q-8 8 -8 16q0 14 22 14h54q21 0 47 -30l205 -263q8 -8 8 -20z" />
    <glyph glyph-name="ecircumflex" unicode="&#xea;" horiz-adv-x="1006" 
d="M913 567q0 -17 -11.5 -28t-27.5 -11h-692v-43q0 -236 95.5 -326.5t261.5 -90.5q149 0 319 71q16 7 25.5 2t9.5 -16v-25q0 -16 -7.5 -24t-31.5 -21q-36 -17 -88 -32t-115 -25t-112 -10q-201 0 -324 114t-123 383v136q0 142 48 253t142 173.5t224 62.5q136 0 228 -60
t135.5 -170t43.5 -257v-56zM823 610v13q0 203 -74 305t-243 102q-111 0 -183 -50.5t-106.5 -143t-34.5 -215.5v-11h641zM817 1280q0 -14 -18 -14h-45q-14 0 -21 6.5t-24 27.5l-193 232l-192 -232q-13 -16 -22 -25t-23 -9h-45q-19 0 -19 14q0 12 9 20l204 263q26 30 47 30h82
q22 0 48 -30l204 -263q8 -8 8 -20z" />
    <glyph glyph-name="edieresis" unicode="&#xeb;" horiz-adv-x="1006" 
d="M913 567q0 -17 -11.5 -28t-27.5 -11h-692v-43q0 -236 95.5 -326.5t261.5 -90.5q149 0 319 71q16 7 25.5 2t9.5 -16v-25q0 -16 -7.5 -24t-31.5 -21q-36 -17 -88 -32t-115 -25t-112 -10q-201 0 -324 114t-123 383v136q0 142 48 253t142 173.5t224 62.5q136 0 228 -60
t135.5 -170t43.5 -257v-56zM823 610v13q0 203 -74 305t-243 102q-111 0 -183 -50.5t-106.5 -143t-34.5 -215.5v-11h641zM723 1354q0 -17 -11.5 -28t-27.5 -11h-12q-16 0 -27.5 11.5t-11.5 27.5v151q0 15 11.5 27t27.5 12h12q17 0 28 -11t11 -28v-151zM416 1354
q0 -16 -11.5 -27.5t-27.5 -11.5h-12q-16 0 -27.5 11.5t-11.5 27.5v151q0 15 11.5 27t27.5 12h12q17 0 28 -12t11 -27v-151z" />
    <glyph glyph-name="iacute" unicode="&#xed;" horiz-adv-x="377" 
d="M233 39q0 -16 -11.5 -27.5t-26.5 -11.5h-13q-15 0 -27 12t-12 27v1022q0 15 12 27t27 12h13q15 0 26.5 -11.5t11.5 -27.5v-1022zM406 1579q0 -8 -8 -16l-219 -263q-13 -16 -22 -25t-23 -9h-45q-19 0 -19 14q0 12 8 20l205 263q26 30 47 30h54q22 0 22 -14z" />
    <glyph glyph-name="igrave" unicode="&#xec;" horiz-adv-x="377" 
d="M233 39q0 -16 -11.5 -27.5t-26.5 -11.5h-13q-15 0 -27 12t-12 27v1022q0 15 12 27t27 12h13q15 0 26.5 -11.5t11.5 -27.5v-1022zM307 1280q0 -14 -19 -14h-45q-11 0 -16.5 3.5t-13.5 13t-15 17.5l-219 263q-8 8 -8 16q0 14 22 14h54q21 0 47 -30l205 -263q8 -8 8 -20z
" />
    <glyph glyph-name="icircumflex" unicode="&#xee;" horiz-adv-x="377" 
d="M233 39q0 -16 -11.5 -27.5t-26.5 -11.5h-13q-15 0 -27 12t-12 27v1022q0 15 12 27t27 12h13q15 0 26.5 -11.5t11.5 -27.5v-1022zM487 1280q0 -14 -18 -14h-45q-14 0 -21 6.5t-24 27.5l-193 232l-192 -232q-13 -16 -22 -25t-23 -9h-45q-19 0 -19 14q0 12 9 20l204 263
q26 30 47 30h82q22 0 48 -30l204 -263q8 -8 8 -20z" />
    <glyph glyph-name="idieresis" unicode="&#xef;" horiz-adv-x="377" 
d="M233 39q0 -16 -11.5 -27.5t-26.5 -11.5h-13q-15 0 -27 12t-12 27v1022q0 15 12 27t27 12h13q15 0 26.5 -11.5t11.5 -27.5v-1022zM387 1354q0 -17 -11.5 -28t-27.5 -11h-12q-16 0 -27.5 11.5t-11.5 27.5v151q0 15 11.5 27t27.5 12h12q17 0 28 -11t11 -28v-151zM80 1354
q0 -16 -11.5 -27.5t-27.5 -11.5h-12q-16 0 -27.5 11.5t-11.5 27.5v151q0 15 11.5 27t27.5 12h12q17 0 28 -12t11 -27v-151z" />
    <glyph glyph-name="ntilde" unicode="&#xf1;" horiz-adv-x="1026" 
d="M903 39q0 -16 -11.5 -27.5t-27.5 -11.5h-14q-16 0 -26.5 11.5t-10.5 27.5v680q0 116 -31.5 184t-97.5 97.5t-172 29.5q-61 0 -158 -12t-141 -23v-956q0 -16 -12 -27.5t-27 -11.5h-12q-15 0 -27 12t-12 27v983q0 33 37 41q77 20 181 33.5t175 13.5q193 0 290 -92t97 -299
v-680zM842 1473q0 -92 -42.5 -139.5t-117.5 -47.5q-80 0 -137 53l-99 97q-30 30 -49.5 43.5t-48.5 13.5q-84 0 -84 -109v-53q0 -33 -20 -33h-35q-23 0 -23 33v53q0 91 43.5 139t118.5 48q78 0 135 -53l99 -97q57 -57 100 -57q82 0 82 109v53q0 33 20 33h35q23 0 23 -33v-53z
" />
    <glyph glyph-name="oacute" unicode="&#xf3;" horiz-adv-x="1028" 
d="M936 477q0 -154 -47 -264t-142 -167.5t-233 -57.5t-233 57.5t-142 167.5t-47 264v144q0 154 47 264t142 167.5t233 57.5t233 -57.5t142 -167.5t47 -264v-144zM846 477v144q0 128 -33.5 219.5t-107 140.5t-191.5 49t-191.5 -49t-107 -140.5t-33.5 -219.5v-144
q0 -197 79 -303t253 -106t253 106t79 303zM733 1579q0 -8 -8 -16l-219 -263q-13 -16 -22 -25t-23 -9h-45q-19 0 -19 14q0 12 8 20l205 263q26 30 47 30h54q22 0 22 -14z" />
    <glyph glyph-name="ograve" unicode="&#xf2;" horiz-adv-x="1028" 
d="M936 477q0 -154 -47 -264t-142 -167.5t-233 -57.5t-233 57.5t-142 167.5t-47 264v144q0 154 47 264t142 167.5t233 57.5t233 -57.5t142 -167.5t47 -264v-144zM846 477v144q0 128 -33.5 219.5t-107 140.5t-191.5 49t-191.5 -49t-107 -140.5t-33.5 -219.5v-144
q0 -197 79 -303t253 -106t253 106t79 303zM618 1280q0 -14 -19 -14h-45q-11 0 -16.5 3.5t-13.5 13t-15 17.5l-219 263q-8 8 -8 16q0 14 22 14h54q21 0 47 -30l205 -263q8 -8 8 -20z" />
    <glyph glyph-name="ocircumflex" unicode="&#xf4;" horiz-adv-x="1028" 
d="M936 477q0 -154 -47 -264t-142 -167.5t-233 -57.5t-233 57.5t-142 167.5t-47 264v144q0 154 47 264t142 167.5t233 57.5t233 -57.5t142 -167.5t47 -264v-144zM846 477v144q0 128 -33.5 219.5t-107 140.5t-191.5 49t-191.5 -49t-107 -140.5t-33.5 -219.5v-144
q0 -197 79 -303t253 -106t253 106t79 303zM815 1280q0 -14 -18 -14h-45q-14 0 -21 6.5t-24 27.5l-193 232l-192 -232q-13 -16 -22 -25t-23 -9h-45q-19 0 -19 14q0 12 9 20l204 263q26 30 47 30h82q22 0 48 -30l204 -263q8 -8 8 -20z" />
    <glyph glyph-name="odieresis" unicode="&#xf6;" horiz-adv-x="1028" 
d="M936 477q0 -154 -47 -264t-142 -167.5t-233 -57.5t-233 57.5t-142 167.5t-47 264v144q0 154 47 264t142 167.5t233 57.5t233 -57.5t142 -167.5t47 -264v-144zM846 477v144q0 128 -33.5 219.5t-107 140.5t-191.5 49t-191.5 -49t-107 -140.5t-33.5 -219.5v-144
q0 -197 79 -303t253 -106t253 106t79 303zM713 1354q0 -17 -11.5 -28t-27.5 -11h-12q-16 0 -27.5 11.5t-11.5 27.5v151q0 15 11.5 27t27.5 12h12q17 0 28 -11t11 -28v-151zM406 1354q0 -16 -11.5 -27.5t-27.5 -11.5h-12q-16 0 -27.5 11.5t-11.5 27.5v151q0 15 11.5 27
t27.5 12h12q17 0 28 -12t11 -27v-151z" />
    <glyph glyph-name="otilde" unicode="&#xf5;" horiz-adv-x="1028" 
d="M936 477q0 -154 -47 -264t-142 -167.5t-233 -57.5t-233 57.5t-142 167.5t-47 264v144q0 154 47 264t142 167.5t233 57.5t233 -57.5t142 -167.5t47 -264v-144zM846 477v144q0 128 -33.5 219.5t-107 140.5t-191.5 49t-191.5 -49t-107 -140.5t-33.5 -219.5v-144
q0 -197 79 -303t253 -106t253 106t79 303zM838 1473q0 -92 -42.5 -139.5t-117.5 -47.5q-80 0 -137 53l-99 97q-30 30 -49.5 43.5t-48.5 13.5q-84 0 -84 -109v-53q0 -33 -20 -33h-35q-23 0 -23 33v53q0 91 43.5 139t118.5 48q78 0 135 -53l99 -97q57 -57 100 -57q82 0 82 109
v53q0 33 20 33h35q23 0 23 -33v-53z" />
    <glyph glyph-name="uacute" unicode="&#xfa;" horiz-adv-x="1026" 
d="M123 1061q0 16 11.5 27.5t27.5 11.5h14q16 0 26.5 -11.5t10.5 -27.5v-680q0 -172 70 -241.5t231 -69.5q61 0 158 12t141 22v957q0 15 12 27t27 12h12q15 0 27 -11t12 -28v-983q0 -33 -37 -41q-74 -19 -182 -33t-174 -14q-191 0 -289 92t-98 299v680zM762 1579
q0 -8 -8 -16l-219 -263q-13 -16 -22 -25t-23 -9h-45q-19 0 -19 14q0 12 8 20l205 263q26 30 47 30h54q22 0 22 -14z" />
    <glyph glyph-name="ugrave" unicode="&#xf9;" horiz-adv-x="1026" 
d="M123 1061q0 16 11.5 27.5t27.5 11.5h14q16 0 26.5 -11.5t10.5 -27.5v-680q0 -172 70 -241.5t231 -69.5q61 0 158 12t141 22v957q0 15 12 27t27 12h12q15 0 27 -11t12 -28v-983q0 -33 -37 -41q-74 -19 -182 -33t-174 -14q-191 0 -289 92t-98 299v680zM647 1280
q0 -14 -19 -14h-45q-11 0 -16.5 3.5t-13.5 13t-15 17.5l-219 263q-8 8 -8 16q0 14 22 14h54q21 0 47 -30l205 -263q8 -8 8 -20z" />
    <glyph glyph-name="ucircumflex" unicode="&#xfb;" horiz-adv-x="1026" 
d="M123 1061q0 16 11.5 27.5t27.5 11.5h14q16 0 26.5 -11.5t10.5 -27.5v-680q0 -172 70 -241.5t231 -69.5q61 0 158 12t141 22v957q0 15 12 27t27 12h12q15 0 27 -11t12 -28v-983q0 -33 -37 -41q-74 -19 -182 -33t-174 -14q-191 0 -289 92t-98 299v680zM821 1280
q0 -14 -18 -14h-45q-14 0 -21 6.5t-24 27.5l-193 232l-192 -232q-13 -16 -22 -25t-23 -9h-45q-19 0 -19 14q0 12 9 20l204 263q26 30 47 30h82q22 0 48 -30l204 -263q8 -8 8 -20z" />
    <glyph glyph-name="udieresis" unicode="&#xfc;" horiz-adv-x="1026" 
d="M123 1061q0 16 11.5 27.5t27.5 11.5h14q16 0 26.5 -11.5t10.5 -27.5v-680q0 -172 70 -241.5t231 -69.5q61 0 158 12t141 22v957q0 15 12 27t27 12h12q15 0 27 -11t12 -28v-983q0 -33 -37 -41q-74 -19 -182 -33t-174 -14q-191 0 -289 92t-98 299v680zM713 1354
q0 -17 -11.5 -28t-27.5 -11h-12q-16 0 -27.5 11.5t-11.5 27.5v151q0 15 11.5 27t27.5 12h12q17 0 28 -11t11 -28v-151zM406 1354q0 -16 -11.5 -27.5t-27.5 -11.5h-12q-16 0 -27.5 11.5t-11.5 27.5v151q0 15 11.5 27t27.5 12h12q17 0 28 -12t11 -27v-151z" />
    <glyph glyph-name="dagger" unicode="&#x2020;" horiz-adv-x="737" 
d="M676 1049q0 -33 -39 -33h-244v-987q0 -41 -33 -41h-24q-33 0 -33 41v987h-203q-39 0 -39 33v20q0 31 39 31h203v383q0 39 35 39h22q15 0 24 -11t9 -28v-383h244q39 0 39 -31v-20z" />
    <glyph glyph-name="degree" unicode="&#xb0;" horiz-adv-x="637" 
d="M596 1255q0 -73 -37.5 -137t-101.5 -101.5t-138 -37.5t-138 37.5t-102 101.5t-38 137q0 74 38 138t102 101.5t138 37.5q55 0 106.5 -22t89 -59.5t59.5 -89t22 -106.5zM518 1255q0 54 -27 100t-73 73.5t-99 27.5q-55 0 -100 -27t-71.5 -73.5t-26.5 -100.5q0 -53 27 -98.5
t72.5 -72.5t98.5 -27q52 0 98.5 27t73.5 72.5t27 98.5z" />
    <glyph glyph-name="cent" unicode="&#xa2;" 
d="M535 1108v209q0 17 9 28t23 11h21q14 0 23.5 -11t9.5 -28v-209q116 -12 204 -51q21 -8 30 -18t9 -27v-13q0 -37 -43 -20q-132 51 -243 51q-169 0 -242.5 -104t-73.5 -305v-138q0 -133 31 -225t100.5 -141t184.5 -49q117 0 243 51q43 17 43 -21v-12q0 -18 -9.5 -27.5
t-29.5 -17.5q-36 -16 -94 -31t-110 -20v-209q0 -17 -9.5 -28t-23.5 -11h-21q-14 0 -23 11t-9 28v209q-128 10 -208.5 75t-117.5 171t-37 247v138q0 139 36.5 245t117.5 169.5t209 72.5z" />
    <glyph glyph-name="sterling" unicode="&#xa3;" 
d="M678 1530q175 0 307 -45q22 -7 30.5 -16t8.5 -29v-17q0 -40 -49 -24q-165 45 -297 45q-127 0 -195.5 -52.5t-93 -148.5t-24.5 -248v-151h501q37 0 37 -35v-18q0 -16 -12 -25.5t-29 -9.5h-497v-410q0 -147 -66 -262h684q41 0 41 -29v-22q0 -33 -41 -33h-762q-21 0 -31 13
t-10 28q0 13 6 22q45 77 64.5 136t19.5 147v410h-108q-37 0 -37 35v18q0 15 12 25t29 10h104v170q0 122 21 215t68.5 161.5t126.5 104t192 35.5z" />
    <glyph glyph-name="section" unicode="&#xa7;" horiz-adv-x="1026" 
d="M877 371q0 71 -23 119t-80 95.5t-174 119.5l-205 124q-80 49 -141 97q-51 -57 -51 -156q0 -60 21.5 -103.5t72 -86t156.5 -107.5l200 -123q131 -79 191 -137q33 68 33 158zM874 -59q0 70 -22.5 118.5t-78 95t-173.5 119.5l-205 125q-94 59 -145 99.5t-81.5 81t-43 87
t-12.5 103.5q0 142 71 219q-40 46 -55.5 95t-15.5 116q0 181 125 256.5t292 75.5q70 0 146 -13t134 -31t85 -32q23 -10 29 -17.5t6 -23.5v-22q0 -39 -39 -23q-55 26 -156 53t-205 27q-162 0 -244.5 -62.5t-82.5 -187.5q0 -60 21.5 -103.5t72 -86t156.5 -107.5l200 -123
q131 -80 197 -142.5t91.5 -125t25.5 -141.5q0 -140 -60 -228q60 -80 60 -202q0 -70 -20.5 -138t-70.5 -126t-141 -93t-225 -35q-116 0 -214 24.5t-173 59.5q-10 6 -19.5 11.5t-13.5 13.5t-4 18v29q0 12 9.5 20t29.5 -1q84 -39 183.5 -64t201.5 -25q203 0 283.5 82t80.5 224z
" />
    <glyph glyph-name="bullet" unicode="&#x2022;" horiz-adv-x="815" 
d="M92 559v393q0 17 12 29t29 12h393q19 0 30 -11t11 -30v-393q0 -17 -12 -29t-29 -12h-393q-15 0 -28 13t-13 28z" />
    <glyph glyph-name="paragraph" unicode="&#xb6;" horiz-adv-x="1186" 
d="M1063 -360q0 -17 -10 -28t-25 -11h-20q-15 0 -25 12t-10 27v1798h-115v-1798q0 -17 -10 -28t-25 -11h-20q-15 0 -25 12t-10 27v923h-223q-216 0 -344.5 120t-128.5 337v45q0 143 58 247t165.5 157t249.5 53h485q33 0 33 -39v-1843z" />
    <glyph glyph-name="germandbls" unicode="&#xdf;" horiz-adv-x="1071" 
d="M979 428q0 -227 -134 -333.5t-343 -106.5q-12 0 -19.5 0.5t-18 2t-21.5 2.5t-23 1q-17 0 -29 10t-12 27v16q0 25 35 25h6q29 -1 47.5 -2t34.5 -2q190 0 288.5 87.5t98.5 272.5v16q0 89 -44 160.5t-129 112.5t-202 41h-84q-41 0 -41 33v18q0 15 12.5 24t28.5 9h84
q87 0 152 24t105.5 65.5t60.5 96t20 113.5v14q0 143 -75.5 220t-233.5 77q-143 0 -231.5 -93.5t-88.5 -305.5v-1012q0 -41 -35 -41h-24q-31 0 -31 41v1010q0 158 51.5 266.5t144 161.5t214.5 53q181 0 290 -97.5t109 -279.5v-14q0 -120 -71 -210t-171 -130q84 -25 145.5 -74
t97.5 -121.5t36 -161.5v-16z" />
    <glyph glyph-name="registered" unicode="&#xae;" horiz-adv-x="750" 
d="M315 1206v-108q0 -21 -20 -21h-21q-18 0 -18 21v299q0 22 23 26q36 4 79 4q81 0 114.5 -27t33.5 -83q0 -74 -68 -98l70 -115q7 -10 4.5 -18.5t-12.5 -8.5h-35q-11 0 -19 13l-67 116h-64zM446 1317q0 30 -18 45.5t-70 15.5h-43v-123h43q44 0 66 14t22 48zM678 1245
q0 -61 -24.5 -118.5t-65 -97t-96 -63.5t-117.5 -24q-81 0 -151.5 40t-111 110t-40.5 153q0 81 40.5 151t110.5 111t152 41q80 0 150 -41t111.5 -110.5t41.5 -151.5zM125 1245q0 -68 34 -125t91 -91t125 -34t125 34t91 91t34 125t-34 125t-91 91t-125 34t-125 -34t-91 -91
t-34 -125z" />
    <glyph glyph-name="copyright" unicode="&#xa9;" horiz-adv-x="750" 
d="M285 1257v-16q0 -121 90 -121q25 0 82 15q26 7 26 -19v-2q0 -17 -14 -24q-37 -21 -94 -21q-58 0 -104 39t-46 133v16q0 95 46 134t104 39q54 0 94 -21q14 -7 14 -25v-2q0 -25 -26 -18q-6 1 -20 5t-29.5 6.5t-32.5 2.5q-90 0 -90 -121zM678 1245q0 -61 -24.5 -118.5
t-65 -97t-96 -63.5t-117.5 -24q-81 0 -151.5 40t-111 110t-40.5 153q0 81 40.5 151t110.5 111t152 41q80 0 150 -41t111.5 -110.5t41.5 -151.5zM125 1245q0 -68 34 -125t91 -91t125 -34t125 34t91 91t34 125t-34 125t-91 91t-125 34t-125 -34t-91 -91t-34 -125z" />
    <glyph glyph-name="trademark" unicode="&#x2122;" horiz-adv-x="1030" 
d="M418 1483q0 -19 -23 -19h-135v-458q0 -21 -20 -21h-31q-7 0 -14 6t-7 15v458h-137q-20 0 -20 19v20q0 21 20 21h344q9 0 16 -5.5t7 -15.5v-20zM707 1198q-28 0 -45 15t-31 44l-78 173h-2v-431q0 -14 -14 -14h-37q-15 0 -15 14v502q0 7 7 14t14 7h57q18 0 23 -13l112 -249
q3 -9 9 -9q5 0 8 9l112 249q5 13 23 13h57q8 0 14.5 -6.5t6.5 -14.5v-502q0 -14 -15 -14h-36q-15 0 -15 14v431h-2l-78 -173q-14 -31 -30.5 -45t-44.5 -14z" />
    <glyph glyph-name="acute" unicode="&#xb4;" horiz-adv-x="635" 
d="M557 1579q0 -8 -8 -16l-219 -263q-13 -16 -22 -25t-23 -9h-45q-19 0 -19 14q0 12 8 20l205 263q26 30 47 30h54q22 0 22 -14z" />
    <glyph glyph-name="dieresis" unicode="&#xa8;" horiz-adv-x="635" 
d="M516 1354q0 -17 -11.5 -28t-27.5 -11h-12q-16 0 -27.5 11.5t-11.5 27.5v151q0 15 11.5 27t27.5 12h12q17 0 28 -11t11 -28v-151zM209 1354q0 -16 -11.5 -27.5t-27.5 -11.5h-12q-16 0 -27.5 11.5t-11.5 27.5v151q0 15 11.5 27t27.5 12h12q17 0 28 -12t11 -27v-151z" />
    <glyph glyph-name="notequal" unicode="&#x2260;" horiz-adv-x="1083" 
d="M737 1532h30q36 0 21 -39l-148 -444h275q16 0 28.5 -9t12.5 -24v-21q0 -32 -41 -32h-303l-105 -324h408q41 0 41 -33v-20q0 -33 -41 -33h-437l-172 -526q-12 -39 -38 -39h-39q-31 0 -19 39l172 526h-215q-41 0 -41 33v20q0 33 41 33h244l106 324h-350q-41 0 -41 32v21
q0 15 12.5 24t28.5 9h379l145 444q10 23 17 31t29 8z" />
    <glyph glyph-name="AE" unicode="&#xc6;" horiz-adv-x="1755" 
d="M1663 35q0 -35 -39 -35h-606q-89 0 -129.5 40t-40.5 126v409h-549l-168 -555q-9 -26 -33 -26h-26q-31 0 -31 33q0 12 2 18l420 1376q14 47 48.5 74t84.5 27h1028q16 0 27.5 -9.5t11.5 -25.5v-17q0 -32 -39 -32h-686v-596h686q18 0 28.5 -9t10.5 -24v-21q0 -34 -39 -34
h-686v-588q0 -44 15.5 -63t64.5 -19h606q39 0 39 -33v-16zM848 666v772h-252q-36 0 -47 -39l-225 -733h524z" />
    <glyph glyph-name="Oslash" unicode="&#xd8;" horiz-adv-x="1253" 
d="M1200 1499q0 -7 -6 -16l-133 -185q90 -158 90 -411v-254q0 -222 -66 -366t-184 -211.5t-274 -67.5q-251 0 -387 164l-90 -125q-30 -39 -54 -39h-20q-23 0 -23 22q0 7 6 17l136 188q-93 155 -93 418v254q0 165 38.5 289t108.5 203t166 116t212 37q78 0 150.5 -17.5
t134.5 -56t106 -94.5l86 119q29 39 53 39h21q22 0 22 -23zM965 1288q-56 81 -141.5 119.5t-196.5 38.5q-434 0 -434 -559v-254q0 -209 59 -336zM1061 633v254q0 105 -15 187t-42 143l-711 -990q111 -153 334 -153q95 0 174 29.5t138 96t90.5 174.5t31.5 259z" />
    <glyph glyph-name="infinity" unicode="&#x221e;" horiz-adv-x="1110" 
d="M1079 795v-52q0 -107 -23 -202.5t-87 -158.5t-178 -63h-13q-165 0 -268 115q-69 -117 -199 -117h-12q-115 0 -174 63t-76.5 153t-17.5 208v52q0 424 286 424h13q155 0 264 -119q73 121 205 121h12q164 0 216 -118.5t52 -305.5zM545 510q100 -117 233 -117h13
q77 0 121.5 47t61.5 125t17 178v52q0 106 -11.5 181.5t-52 122t-116.5 46.5h-12q-67 0 -115.5 -58.5t-67.5 -179.5l-38 -260q-18 -97 -33 -137zM330 1143h-13q-113 0 -155.5 -94.5t-42.5 -255.5v-52q0 -80 6 -139t23.5 -107.5t55 -76t95.5 -27.5h12q147 0 187 271l37 260
q11 66 22 98q-55 66 -114 94.5t-113 28.5z" />
    <glyph glyph-name="plusminus" unicode="&#xb1;" 
d="M1030 791q0 -33 -41 -33h-373v-371q0 -41 -32 -41h-21q-15 0 -24 12.5t-9 28.5v371h-370q-41 0 -41 33v20q0 33 41 33h370v373q0 40 33 40h21q32 0 32 -40v-373h373q41 0 41 -33v-20zM1030 33q0 -33 -41 -33h-829q-41 0 -41 33v20q0 33 41 33h829q41 0 41 -33v-20z" />
    <glyph glyph-name="lessequal" unicode="&#x2264;" horiz-adv-x="1083" 
d="M829 326q0 -13 -10 -23l-14 -14q-8 -8 -21 -8q-14 0 -32 14l-545 446q-31 25 -31 60t31 59l545 447q18 14 32 14q13 0 21 -8l14 -15q10 -10 10 -22q0 -18 -16 -31l-543 -444l543 -445q16 -13 16 -30zM997 33q0 -33 -41 -33h-829q-41 0 -41 33v20q0 33 41 33h829
q41 0 41 -33v-20z" />
    <glyph glyph-name="greaterequal" unicode="&#x2265;" horiz-adv-x="1083" 
d="M934 801q0 -35 -31 -60l-545 -446q-17 -14 -32 -14q-13 0 -21 8l-14 14q-11 11 -11 23q0 16 17 30l543 445l-543 444q-17 14 -17 31q0 11 11 22l14 15q8 8 21 8q15 0 32 -14l545 -447q31 -24 31 -59zM997 33q0 -33 -41 -33h-829q-41 0 -41 33v20q0 33 41 33h829
q41 0 41 -33v-20z" />
    <glyph glyph-name="yen" unicode="&#xa5;" 
d="M1075 520q0 -15 -11 -24t-30 -9h-416v-448q0 -16 -9.5 -27.5t-24.5 -11.5h-21q-15 0 -25 12t-10 27v448h-419q-37 0 -37 33v19q0 14 11.5 23t29.5 9h415v62l-125 248h-294q-37 0 -37 32v19q0 14 11.5 23.5t29.5 9.5h247l-251 501q-9 14 -9 27q0 29 37 29h25q18 0 33 -25
l380 -758l379 758q15 25 33 25h23q37 0 37 -29q0 -10 -9 -27l-252 -501h252q37 0 37 -33v-19q0 -15 -11 -23.5t-30 -8.5h-291l-125 -248v-62h420q37 0 37 -32v-19z" />
    <glyph glyph-name="uni00B5" unicode="&#xb5;" horiz-adv-x="1026" 
d="M903 78q0 -13 -7.5 -23t-18.5 -14q-79 -25 -173.5 -39t-177.5 -14q-206 0 -313 118v-466q0 -17 -10 -28t-25 -11h-20q-15 0 -25 12t-10 27v1421q0 16 11.5 27.5t27.5 11.5h14q16 0 26.5 -11.5t10.5 -27.5v-682q0 -155 76.5 -233t236.5 -78q67 0 150 11.5t137 26.5v955
q0 15 12 27t27 12h12q15 0 27 -11t12 -28v-983z" />
    <glyph glyph-name="partialdiff" unicode="&#x2202;" horiz-adv-x="1011" 
d="M203 1509q-36 -6 -41 21l-2 10q-7 35 33 43q101 21 215 21q143 0 245 -41.5t163.5 -119.5t90.5 -189.5t29 -249.5q0 -60 -6.5 -152.5t-17 -182.5t-23.5 -169q-39 -243 -163 -377.5t-335 -134.5q-122 0 -202 45t-118 127.5t-38 193.5q0 68 8 123l22 144q28 171 93.5 279
t167.5 159t243 51q82 0 158.5 -30t126.5 -93v17q0 240 -90 381t-354 141q-119 0 -205 -17zM795 477l22 144q12 74 12 137q0 133 -63.5 202.5t-212.5 69.5q-118 0 -200 -49t-130.5 -141t-68.5 -219l-23 -144q-10 -75 -10 -123q0 -286 274 -286q86 0 155.5 28t118.5 81.5
t80 130t46 169.5z" />
    <glyph glyph-name="summation" unicode="&#x2211;" horiz-adv-x="873" 
d="M508 705q0 -43 -23 -74l-362 -641q-3 -6 -3 -10q0 -9 9 -9h682q39 0 39 -32v-17q0 -16 -11.5 -25.5t-27.5 -9.5h-692q-95 0 -95 79q0 34 17 63l369 647q8 13 8 29q0 15 -8 28l-369 647q-17 31 -17 63q0 79 95 79h692q16 0 27.5 -9.5t11.5 -25.5v-17q0 -32 -39 -32h-682
q-9 0 -9 -8q0 -5 3 -11l362 -641q23 -31 23 -73z" />
    <glyph glyph-name="product" unicode="&#x220f;" horiz-adv-x="1284" 
d="M70 1522h1144q18 0 28.5 -9t10.5 -24v-16q0 -35 -39 -35h-124v-1512q0 -17 -9.5 -28t-25.5 -11h-19q-16 0 -25.5 11t-9.5 28v1512h-716v-1512q0 -15 -10 -27t-25 -12h-21q-14 0 -24 12t-10 27v1512h-125q-39 0 -39 35v16q0 15 11 24t28 9z" />
    <glyph glyph-name="uniF006" unicode="&#x3c0;" horiz-adv-x="1083" 
d="M1061 1032h-141v-758q0 -92 4 -130.5t23 -56t65 -17.5h47q49 0 49 -33v-6q0 -25 -29.5 -33t-87.5 -8t-91 21.5t-49 59.5t-19 82.5t-3 120.5v758h-559v-993q0 -39 -39 -39h-12q-39 0 -39 39v993h-141q-39 0 -39 39v10q0 39 39 39h1022q39 0 39 -39v-10q0 -39 -39 -39z" />
    <glyph glyph-name="uniF006" unicode="&#xf006;" horiz-adv-x="1083" 
d="M1061 1032h-141v-758q0 -92 4 -130.5t23 -56t65 -17.5h47q49 0 49 -33v-6q0 -25 -29.5 -33t-87.5 -8t-91 21.5t-49 59.5t-19 82.5t-3 120.5v758h-559v-993q0 -39 -39 -39h-12q-39 0 -39 39v993h-141q-39 0 -39 39v10q0 39 39 39h1022q39 0 39 -39v-10q0 -39 -39 -39z" />
    <glyph glyph-name="integral" unicode="&#x222b;" horiz-adv-x="520" 
d="M215 -170v1460q0 242 232 242q67 0 106 -6q39 -5 39 -33v-14q0 -27 -43 -27h-102q-73 0 -107.5 -36.5t-34.5 -125.5v-1460q0 -128 -59.5 -185t-171.5 -57q-67 0 -106 6t-39 33v15q0 26 43 26h102q74 0 107.5 35.5t33.5 126.5z" />
    <glyph glyph-name="ordfeminine" unicode="&#xaa;" horiz-adv-x="508" 
d="M451 961q0 -28 -23 -33q-78 -23 -166 -23q-123 0 -174 44t-51 141v14q0 61 27 100.5t85.5 58.5t157.5 19h76v29q0 84 -27 116.5t-98 32.5q-69 0 -152 -10h-4q-30 0 -30 27v6q0 24 32 28q72 11 154 11q107 0 150 -55.5t43 -155.5v-350zM383 979v240h-74q-84 0 -127 -11
t-61.5 -36t-18.5 -68v-14q0 -67 32 -95t128 -28q46 0 121 12z" />
    <glyph glyph-name="ordmasculine" unicode="&#xba;" horiz-adv-x="547" 
d="M506 1176q0 -128 -59 -199.5t-173 -71.5t-173.5 72t-59.5 199v75q0 83 26 144t78.5 94t128.5 33q114 0 173 -71t59 -200v-75zM438 1176v75q0 209 -164 209q-165 0 -165 -209v-75q0 -209 165 -209q164 0 164 209z" />
    <glyph glyph-name="uni2126" unicode="&#x2126;" horiz-adv-x="1175" 
d="M588 1532q118 0 213 -37t165 -116t108 -203t38 -289v-49q0 -173 -40 -297.5t-113.5 -202t-174.5 -113.5v-141h303q39 0 39 -33v-16q0 -35 -39 -35h-346q-29 0 -38 16t-9 27v215q0 16 5 24.5t24 12.5q299 78 299 543v49q0 199 -55 324.5t-152 180t-227 54.5
q-434 0 -434 -559v-49q0 -164 36 -277t102 -177t161 -89q18 -4 23 -11.5t5 -25.5v-215q1 -11 -8.5 -27t-38.5 -16h-346q-39 0 -39 35v16q0 33 39 33h303v141q-154 55 -241 207t-87 406v49q0 165 38.5 289t108.5 203t166 116t212 37z" />
    <glyph glyph-name="ae" unicode="&#xe6;" horiz-adv-x="1659" 
d="M1192 68q149 0 319 71q16 7 25.5 2t9.5 -16v-25q0 -16 -7.5 -24t-31.5 -21q-56 -26 -147 -46.5t-168 -20.5q-93 0 -171.5 16t-138.5 58.5t-96 119.5q-52 -91 -145 -142.5t-246 -51.5q-134 0 -223.5 77t-89.5 252v27q0 165 115.5 240t390.5 75h157v74q0 120 -30 185.5
t-91 89.5t-165 24q-67 0 -139.5 -16t-126.5 -37q-43 -17 -43 20v13q0 31 38 45q52 19 125 36t150 17q148 0 233.5 -48.5t116.5 -148.5q111 197 346 197q137 0 229 -60t135.5 -170t43.5 -257v-56q0 -16 -11.5 -27.5t-27.5 -11.5h-692v-110q0 -112 27 -181t76 -106t112.5 -50
t140.5 -13zM745 430v148h-157q-232 0 -323 -51t-91 -183v-27q0 -249 221 -249q182 0 264.5 80.5t85.5 252.5v29zM1477 610v13q0 203 -74 305t-244 102q-160 0 -240 -105t-83 -286v-29h641z" />
    <glyph glyph-name="oslash" unicode="&#xf8;" horiz-adv-x="1028" 
d="M997 1147q0 -15 -8 -23l-133 -178q80 -124 80 -325v-144q0 -154 -47 -264t-142 -167.5t-233 -57.5q-183 0 -291 100l-102 -139q-17 -21 -33 -21h-41q-16 0 -16 17q0 11 8 22l135 183q-82 125 -82 327v144q0 154 47 264t142 167.5t233 57.5q184 0 293 -104l100 137
q17 20 33 20h41q16 0 16 -16zM756 938q-84 92 -242 92q-118 0 -191.5 -49t-107 -140.5t-33.5 -219.5v-144q0 -155 47 -252zM846 477v144q0 150 -45 247l-527 -710q84 -90 240 -90q174 0 253 106t79 303z" />
    <glyph glyph-name="questiondown" unicode="&#xbf;" horiz-adv-x="827" 
d="M102 -121q0 93 48 175t178 212l61 62q77 75 100 122.5t23 131.5v123q0 17 11.5 27.5t27.5 10.5h12q16 0 27.5 -10t11.5 -28v-123q0 -66 -13 -115.5t-43.5 -94t-94.5 -110.5l-58 -57q-118 -118 -155 -183t-37 -143v-16q0 -217 264 -217q76 0 137 14.5t143 40.5
q19 5 25 -1.5t6 -23.5v-16q0 -16 -7.5 -24t-27.5 -15q-144 -55 -282 -55q-89 0 -170.5 29t-134 95t-52.5 173v16zM512 1071q0 16 11.5 27.5t27.5 11.5h12q16 0 27.5 -10.5t11.5 -28.5v-151q0 -16 -12 -27.5t-27 -11.5h-12q-15 0 -27 12t-12 27v151z" />
    <glyph glyph-name="exclamdown" unicode="&#xa1;" horiz-adv-x="377" 
d="M233 920q0 -16 -11.5 -27.5t-26.5 -11.5h-13q-15 0 -27 12t-12 27v151q0 16 11.5 27.5t27.5 11.5h13q16 0 27 -11t11 -28v-151zM233 -385q0 -16 -11.5 -27.5t-26.5 -11.5h-13q-15 0 -27 12t-12 27v1090q0 15 11.5 26.5t27.5 11.5h13q16 0 27 -11t11 -27v-1090z" />
    <glyph glyph-name="logicalnot" unicode="&#xac;" 
d="M989 594q0 -41 -33 -41h-20q-33 0 -33 41v369h-702q-41 0 -41 32v21q0 15 11.5 24t29.5 9h755q15 0 24 -11t9 -26v-418z" />
    <glyph glyph-name="radical" unicode="&#x221a;" horiz-adv-x="1303" 
d="M1296 1735l-555 -1792q-12 -39 -41.5 -63.5t-64.5 -24.5q-37 0 -56.5 9.5t-30 28t-18.5 50.5l-223 897q-8 37 -51 37h-217q-39 0 -39 34v17q0 15 11 24t28 9h217q61 0 93.5 -20t45.5 -75l228 -903q3 -12 12 -12t12 12l555 1786q9 39 55 39h15q31 0 31 -25q0 -7 -7 -28z
" />
    <glyph glyph-name="florin" unicode="&#x192;" 
d="M1022 1499v-6l-2 -14q-3 -27 -47 -27h-103q-51 0 -82.5 -15t-51.5 -51t-27 -96l-62 -446h305q33 0 33 -31v-4l-2 -18q-2 -16 -14 -25.5t-29 -9.5h-305l-107 -768q-17 -128 -84 -185t-180 -57q-65 0 -104 6q-35 5 -35 27v6l2 14q3 27 47 27h102q51 0 83 15t52 51t27 96
l107 768h-264q-35 0 -35 30v5l2 18q2 11 7.5 18t16 12t21.5 5h264l61 446q34 242 265 242q65 0 104 -6q35 -5 35 -27z" />
    <glyph glyph-name="approxequal" unicode="&#x2248;" horiz-adv-x="1083" 
d="M869 1063q0 -92 -42.5 -139t-117.5 -47q-81 0 -137 53l-99 96q-28 30 -49 43.5t-49 13.5q-84 0 -84 -108v-53q0 -20 -4 -26.5t-16 -6.5h-35q-23 0 -23 33v53q0 91 43.5 138.5t118.5 47.5q79 0 135 -53l98 -96q58 -58 101 -58q82 0 82 109v53q0 18 3.5 25.5t16.5 7.5h35
q23 0 23 -33v-53zM869 653q0 -92 -42.5 -139t-117.5 -47q-81 0 -137 53l-99 96q-56 58 -98 58q-84 0 -84 -109v-53q0 -20 -4 -26.5t-16 -6.5h-35q-23 0 -23 33v53q0 91 43.5 139t118.5 48q78 0 135 -54l98 -96q57 -57 101 -57q82 0 82 108v54q0 17 3.5 24.5t16.5 7.5h35
q23 0 23 -32v-54z" />
    <glyph glyph-name="uni2206" unicode="&#x2206;" horiz-adv-x="1212" 
d="M1158 51q3 -10 3 -19q0 -32 -32 -32h-1046q-32 0 -32 33q0 9 3 18l420 1381q14 48 48.5 74t84.5 26q49 0 83.5 -25.5t47.5 -72.5zM1051 90l-397 1319q-12 41 -47 41q-37 0 -47 -39l-400 -1321h891z" />
    <glyph glyph-name="guillemotleft" unicode="&#xab;" horiz-adv-x="1055" 
d="M967 188q0 -13 -11 -22l-14 -14q-8 -9 -20 -9q-14 0 -33 15l-365 334q-28 25 -28 59q0 31 28 59l365 334q18 14 33 14q12 0 20 -8l14 -14q11 -9 11 -23q0 -18 -17 -30l-362 -332l362 -332q17 -12 17 -31zM496 188q0 -13 -11 -22l-14 -14q-8 -9 -20 -9q-14 0 -33 15
l-365 334q-28 25 -28 59q0 31 28 59l365 334q18 14 33 14q12 0 20 -8l14 -14q11 -9 11 -23q0 -16 -17 -30l-362 -332l362 -332q17 -14 17 -31z" />
    <glyph glyph-name="guillemotright" unicode="&#xbb;" horiz-adv-x="1055" 
d="M1030 551q0 -35 -29 -59l-364 -334q-19 -15 -33 -15q-12 0 -20 9l-15 14q-10 10 -10 22q0 18 16 31l363 332l-363 332q-16 13 -16 30q0 13 10 23l15 14q8 8 20 8q16 0 33 -14l364 -334q29 -27 29 -59zM559 551q0 -35 -29 -59l-364 -334q-19 -15 -33 -15q-12 0 -20 9
l-15 14q-10 10 -10 22q0 18 16 31l363 332l-363 332q-16 13 -16 30q0 13 10 23l15 14q8 8 20 8q16 0 33 -14l364 -334q29 -27 29 -59z" />
    <glyph glyph-name="ellipsis" unicode="&#x2026;" horiz-adv-x="999" 
d="M893 27q0 -16 -11.5 -27.5t-27.5 -11.5h-12q-16 0 -27.5 11.5t-11.5 27.5v151q0 15 11.5 27t27.5 12h12q17 0 28 -12t11 -27v-151zM545 27q0 -16 -11.5 -27.5t-27.5 -11.5h-12q-16 0 -27.5 11.5t-11.5 27.5v151q0 15 11.5 27t27.5 12h12q17 0 28 -12t11 -27v-151zM197 27
q0 -16 -11.5 -27.5t-27.5 -11.5h-13q-16 0 -27.5 11.5t-11.5 27.5v151q0 15 11.5 27t27.5 12h13q17 0 28 -12t11 -27v-151z" />
    <glyph glyph-name="uni00A0" unicode="&#xa0;" 
 />
    <glyph glyph-name="Agrave" unicode="&#xc0;" horiz-adv-x="1227" 
d="M1169 25q0 -31 -32 -31h-25q-26 0 -33 26l-172 555h-590l-167 -555q-11 -26 -33 -26h-27q-31 0 -31 33q0 12 2 18l420 1387q16 48 50 74t83 26t83.5 -25.5t47.5 -72.5l420 -1389q4 -12 4 -20zM885 666l-223 743q-14 41 -48 41q-37 0 -47 -39l-225 -745h543zM715 1639
q0 -14 -19 -14h-45q-11 0 -16.5 3.5t-13.5 13t-15 17.5l-219 263q-8 8 -8 16q0 14 22 14h54q21 0 47 -30l205 -263q8 -8 8 -20z" />
    <glyph glyph-name="Atilde" unicode="&#xc3;" horiz-adv-x="1227" 
d="M1169 25q0 -31 -32 -31h-25q-26 0 -33 26l-172 555h-590l-167 -555q-11 -26 -33 -26h-27q-31 0 -31 33q0 12 2 18l420 1387q16 48 50 74t83 26t83.5 -25.5t47.5 -72.5l420 -1389q4 -12 4 -20zM885 666l-223 743q-14 41 -48 41q-37 0 -47 -39l-225 -745h543zM952 1801
q0 -92 -42.5 -139.5t-117.5 -47.5q-80 0 -137 53l-99 97q-30 30 -49.5 43.5t-48.5 13.5q-84 0 -84 -109v-53q0 -33 -20 -33h-35q-23 0 -23 33v53q0 91 43.5 139t118.5 48q78 0 135 -53l99 -97q57 -57 100 -57q82 0 82 109v53q0 33 20 33h35q23 0 23 -33v-53z" />
    <glyph glyph-name="Otilde" unicode="&#xd5;" horiz-adv-x="1253" 
d="M1151 633q0 -222 -66 -366t-184 -211.5t-274 -67.5t-274.5 67.5t-184.5 211.5t-66 366v254q0 165 38.5 289t108.5 203t166 116t212 37q118 0 213 -37t165 -116t108 -203t38 -289v-254zM1061 633v254q0 151 -32 260.5t-91 175t-136.5 94.5t-174.5 29q-434 0 -434 -559
v-254q0 -559 434 -559q95 0 174 29.5t138 96t90.5 174.5t31.5 259zM961 1801q0 -92 -42.5 -139.5t-117.5 -47.5q-80 0 -137 53l-99 97q-30 30 -49.5 43.5t-48.5 13.5q-84 0 -84 -109v-53q0 -33 -20 -33h-35q-23 0 -23 33v53q0 91 43.5 139t118.5 48q78 0 135 -53l99 -97
q57 -57 100 -57q82 0 82 109v53q0 33 20 33h35q23 0 23 -33v-53z" />
    <glyph glyph-name="OE" unicode="&#x152;" horiz-adv-x="1970" 
d="M1878 35q0 -35 -39 -35h-606q-89 0 -129.5 40t-40.5 126v39q-70 -105 -184 -161t-252 -56q-147 0 -267.5 64.5t-189 188t-68.5 289.5v459q0 126 39.5 227.5t111 172t168 107t206.5 36.5q141 0 254 -55.5t182 -159.5v37q0 88 40 128t130 40h606q16 0 27.5 -9.5t11.5 -25.5
v-17q0 -32 -39 -32h-606q-49 0 -64.5 -19t-15.5 -65v-512h686q18 0 28.5 -9t10.5 -24v-21q0 -34 -39 -34h-686v-588q0 -44 15.5 -63t64.5 -19h606q39 0 39 -33v-16zM1063 516v14v459v15v6q-6 204 -130.5 320t-305.5 116q-118 0 -217.5 -53t-158 -157t-58.5 -247v-459
q0 -143 58.5 -246.5t158 -156.5t217.5 -53q181 0 305.5 116t130.5 320v6z" />
    <glyph glyph-name="oe" unicode="&#x153;" horiz-adv-x="1759" 
d="M1667 567q0 -17 -11.5 -28t-27.5 -11h-692v-43q0 -236 95.5 -326.5t260.5 -90.5q149 0 320 71q16 8 25.5 2t9.5 -16v-25q0 -14 -7 -22.5t-32 -22.5q-36 -17 -88.5 -32t-116 -25t-111.5 -10q-141 0 -245 54.5t-156 178.5q-96 -233 -377 -233q-138 0 -233 57.5t-142 167.5
t-47 264v144q0 154 47 264t142 167.5t233 57.5q282 0 379 -240q48 113 140 176.5t227 63.5q136 0 228 -60t135.5 -170t43.5 -257v-56zM846 459v162q0 128 -33.5 219.5t-107 140.5t-191.5 49t-191.5 -49t-107 -140.5t-33.5 -219.5v-144q0 -197 79 -303t253 -106
q115 0 187.5 46.5t107.5 135t37 209.5zM1577 610v13q0 203 -74 305t-243 102q-112 0 -184 -51t-106 -143t-34 -215v-11h641z" />
    <glyph glyph-name="endash" unicode="&#x2013;" horiz-adv-x="963" 
d="M881 559q0 -15 -10.5 -24t-28.5 -9h-721q-17 0 -28 9t-11 24v16q0 17 11 27t28 10h721q17 0 28 -10t11 -27v-16z" />
    <glyph glyph-name="emdash" unicode="&#x2014;" horiz-adv-x="1290" 
d="M1208 559q0 -15 -10.5 -24t-28.5 -9h-1048q-17 0 -28 9t-11 24v16q0 17 11 27t28 10h1048q17 0 28 -10t11 -27v-16z" />
    <glyph glyph-name="quotedblleft" unicode="&#x201c;" horiz-adv-x="563" 
d="M504 1501q0 -12 -2 -18l-84 -353q-8 -38 -41 -38h-39q-23 0 -23 22q0 10 2 16l99 353q11 39 39 39h30q19 0 19 -21zM248 1501q0 -12 -2 -18l-84 -353q-8 -38 -41 -38h-39q-23 0 -23 22q0 10 2 16l99 353q11 39 39 39h30q19 0 19 -21z" />
    <glyph glyph-name="quotedblright" unicode="&#x201d;" horiz-adv-x="563" 
d="M504 1499q0 -10 -2 -16l-99 -353q-6 -21 -14.5 -29.5t-23.5 -8.5h-31q-19 0 -19 20q0 12 2 18l84 353q10 39 41 39h39q23 0 23 -23zM248 1499q0 -10 -2 -16l-99 -353q-6 -21 -14.5 -29.5t-23.5 -8.5h-31q-19 0 -19 20q0 12 2 18l84 353q10 39 41 39h39q23 0 23 -23z" />
    <glyph glyph-name="quoteleft" unicode="&#x2018;" horiz-adv-x="307" 
d="M248 1499q0 -12 -2 -18l-84 -353q-8 -38 -41 -38h-39q-23 0 -23 22q0 10 2 16l99 353q11 39 39 39h30q19 0 19 -21z" />
    <glyph glyph-name="quoteright" unicode="&#x2019;" horiz-adv-x="307" 
d="M248 1499q0 -10 -2 -16l-99 -353q-6 -21 -14.5 -29.5t-23.5 -8.5h-31q-19 0 -19 20q0 12 2 18l84 353q10 39 41 39h39q23 0 23 -23z" />
    <glyph glyph-name="divide" unicode="&#xf7;" 
d="M618 1047q0 -17 -11 -28t-27 -11h-13q-16 0 -27.5 11.5t-11.5 27.5v151q0 15 11.5 27t27.5 12h13q17 0 27.5 -11.5t10.5 -27.5v-151zM989 791q0 -33 -41 -33h-747q-41 0 -41 33v20q0 33 41 33h747q41 0 41 -33v-20zM618 403q0 -16 -11 -27t-27 -11h-13q-16 0 -27.5 11.5
t-11.5 26.5v152q0 15 12 27t27 12h13q15 0 26.5 -11.5t11.5 -27.5v-152z" />
    <glyph glyph-name="lozenge" unicode="&#x25ca;" horiz-adv-x="971" 
d="M485 231q-16 0 -33 8t-33.5 23.5t-37.5 42.5l-252 313q-54 64 -54 115t54 117l258 324q42 53 98 53t98 -53l258 -324q54 -66 54 -117t-54 -115l-252 -313q-31 -39 -55 -56.5t-49 -17.5zM485 1139q-18 0 -41 -29l-254 -322q-25 -34 -25 -57q0 -28 29 -63l246 -308
q27 -38 45 -38t45 38l246 308q28 34 28 63q0 24 -24 57l-254 322q-23 29 -41 29z" />
    <glyph glyph-name="ydieresis" unicode="&#xff;" horiz-adv-x="954" 
d="M895 1065q0 -10 -2 -16l-336 -1164q-32 -112 -72 -172.5t-101 -86t-159 -25.5q-53 0 -127 12q-41 7 -41 29v22q0 29 31 29h12q93 -12 133 -12q57 0 95 10.5t65 35t45.5 65t38.5 112.5l27 96h-29q-50 0 -76.5 22t-48.5 93l-276 936q-2 4 -2 14q0 35 34 35h19
q9 0 19.5 -9.5t13.5 -19.5l276 -942q13 -45 47 -45h47l281 989q8 27 37 27h18q31 0 31 -35zM700 1354q0 -17 -11.5 -28t-27.5 -11h-12q-16 0 -27.5 11.5t-11.5 27.5v151q0 15 11.5 27t27.5 12h12q17 0 28 -11t11 -28v-151zM393 1354q0 -16 -11.5 -27.5t-27.5 -11.5h-12
q-16 0 -27.5 11.5t-11.5 27.5v151q0 15 11.5 27t27.5 12h12q17 0 28 -12t11 -27v-151z" />
    <glyph glyph-name="Ydieresis" unicode="&#x178;" horiz-adv-x="1087" 
d="M1014 1493q0 -10 -6 -27l-324 -714q-45 -99 -96 -119v-594q0 -15 -10 -27t-25 -12h-21q-14 0 -24 12t-10 27v594q-51 20 -97 119l-323 714q-6 17 -6 27q0 29 34 29h21q9 0 18.5 -8t14.5 -17l321 -717q22 -46 33 -58.5t29 -12.5t29.5 13.5t31.5 57.5l322 717q13 25 32 25
h21q35 0 35 -29zM739 1686q0 -17 -11.5 -28t-27.5 -11h-12q-16 0 -27.5 11.5t-11.5 27.5v151q0 15 11.5 27t27.5 12h12q17 0 28 -11t11 -28v-151zM432 1686q0 -16 -11.5 -27.5t-27.5 -11.5h-12q-16 0 -27.5 11.5t-11.5 27.5v151q0 15 11.5 27t27.5 12h12q17 0 28 -12t11 -27
v-151z" />
    <glyph glyph-name="fraction" unicode="&#x2215;" horiz-adv-x="582" 
d="M721 1522h35q25 0 25 -19q0 -10 -7 -20l-856 -1456q-14 -25 -23 -32t-30 -7h-39q-20 0 -20 16q0 11 8 23l856 1456q12 22 23 30.5t28 8.5z" />
    <glyph glyph-name="Euro" unicode="&#x20ac;" 
d="M168 571h-90q-37 0 -37 33v19q0 14 11.5 23t29.5 9h86v219h-90q-37 0 -37 33v19q0 14 11.5 23t29.5 9h88q7 159 49 271t111.5 179t151.5 95.5t182 28.5q176 0 340 -82q38 -19 38 -41v-18q0 -21 -9 -26t-29 1q-19 7 -61 23t-82.5 28.5t-89.5 20.5t-107 8q-85 0 -155 -27
t-124.5 -85t-87 -152.5t-39.5 -223.5h674q16 0 26.5 -6.5t10.5 -19.5v-6l-4 -19q-7 -33 -41 -33h-666v-219h608q18 0 27.5 -6.5t9.5 -19.5v-6l-4 -19q-7 -33 -41 -33h-600q11 -258 120 -377.5t286 -119.5q58 0 101 7.5t85 20t95 31.5t59 21q22 6 30 1t8 -26v-18
q0 -22 -38 -41q-164 -82 -340 -82q-96 0 -182 29.5t-155 98t-110.5 179.5t-48.5 276z" />
    <glyph glyph-name="guilsinglleft" unicode="&#x2039;" horiz-adv-x="584" 
d="M496 188q0 -13 -11 -22l-14 -14q-8 -9 -20 -9q-14 0 -33 15l-365 334q-28 25 -28 59q0 31 28 59l365 334q18 14 33 14q12 0 20 -8l14 -14q11 -9 11 -23q0 -16 -17 -30l-362 -332l362 -332q17 -14 17 -31z" />
    <glyph glyph-name="guilsinglright" unicode="&#x203a;" horiz-adv-x="584" 
d="M559 551q0 -35 -29 -59l-364 -334q-19 -15 -33 -15q-12 0 -20 9l-15 14q-10 10 -10 22q0 18 16 31l363 332l-363 332q-16 13 -16 30q0 13 10 23l15 14q8 8 20 8q16 0 33 -14l364 -334q29 -27 29 -59z" />
    <glyph glyph-name="daggerdbl" unicode="&#x2021;" horiz-adv-x="737" 
d="M676 618q0 -32 -39 -32h-244v-557q0 -41 -33 -41h-24q-33 0 -33 41v557h-203q-39 0 -39 32v21q0 31 39 31h203v346h-203q-39 0 -39 33v20q0 31 39 31h203v420q0 39 35 39h22q15 0 24 -11t9 -28v-420h244q39 0 39 -31v-20q0 -33 -39 -33h-244v-346h244q39 0 39 -31v-21z
" />
    <glyph glyph-name="periodcentered" unicode="&#x2219;" horiz-adv-x="303" 
d="M197 737q0 -16 -11.5 -27.5t-27.5 -11.5h-13q-16 0 -27.5 11.5t-11.5 27.5v152q0 15 12 27t27 12h13q15 0 27 -12t12 -27v-152z" />
    <glyph glyph-name="quotesinglbase" unicode="&#x201a;" horiz-adv-x="307" 
d="M248 195q0 -11 -2 -17l-99 -352q-11 -39 -38 -39h-31q-19 0 -19 20q0 13 2 19l84 352q9 39 41 39h39q23 0 23 -22z" />
    <glyph glyph-name="quotedblbase" unicode="&#x201e;" horiz-adv-x="563" 
d="M504 195q0 -11 -2 -17l-99 -352q-11 -39 -38 -39h-31q-19 0 -19 20q0 13 2 19l84 352q9 39 41 39h39q23 0 23 -22zM248 195q0 -11 -2 -17l-99 -352q-11 -39 -38 -39h-31q-19 0 -19 20q0 13 2 19l84 352q9 39 41 39h39q23 0 23 -22z" />
    <glyph glyph-name="perthousand" unicode="&#x2030;" horiz-adv-x="2185" 
d="M623 1001q0 -160 -68.5 -240.5t-192.5 -80.5q-121 0 -190.5 80.5t-69.5 240.5v211q0 107 31.5 178.5t90 106.5t138.5 35q83 0 141 -35t89 -107t31 -178v-211zM539 1001v211q0 238 -177 238q-176 0 -176 -238v-211q0 -237 176 -237q177 0 177 237zM1231 1479l-858 -1452
q-14 -23 -22.5 -31t-20.5 -8h-56q-16 0 -16 12q0 9 12 31l856 1452q20 30 25 34.5t20 4.5h54q18 0 18 -13q0 -10 -12 -30zM1407 309q0 -161 -68 -241t-192 -80q-123 0 -191.5 80.5t-68.5 240.5v211q0 160 68.5 240t191.5 80q124 0 192 -79.5t68 -240.5v-211zM1323 309v211
q0 238 -176 238t-176 -238v-211q0 -237 176 -237t176 237zM2042 309q0 -161 -68 -241t-192 -80q-123 0 -191.5 80.5t-68.5 240.5v211q0 160 68.5 240t191.5 80q124 0 192 -79.5t68 -240.5v-211zM1958 309v211q0 238 -176 238t-176 -238v-211q0 -237 176 -237t176 237z" />
    <glyph glyph-name="Acircumflex" unicode="&#xc2;" horiz-adv-x="1227" 
d="M1169 25q0 -31 -32 -31h-25q-26 0 -33 26l-172 555h-590l-167 -555q-11 -26 -33 -26h-27q-31 0 -31 33q0 12 2 18l420 1387q16 48 50 74t83 26t83.5 -25.5t47.5 -72.5l420 -1389q4 -12 4 -20zM885 666l-223 743q-14 41 -48 41q-37 0 -47 -39l-225 -745h543zM913 1641
q0 -14 -18 -14h-45q-14 0 -21 6.5t-24 27.5l-193 232l-192 -232q-13 -16 -22 -25t-23 -9h-45q-19 0 -19 14q0 12 9 20l204 263q26 30 47 30h82q22 0 48 -30l204 -263q8 -8 8 -20z" />
    <glyph glyph-name="Ecircumflex" unicode="&#xca;" horiz-adv-x="1051" 
d="M958 35q0 -16 -10.5 -25.5t-27.5 -9.5h-529q-81 0 -135.5 22t-83.5 72t-29 135v1063q0 85 29.5 135.5t83.5 72.5t135 22h529q17 0 27.5 -9.5t10.5 -25.5v-17q0 -15 -10 -23.5t-28 -8.5h-529q-81 0 -119.5 -29t-38.5 -117v-450h687q18 0 28 -9t10 -24v-21
q0 -15 -10.5 -24.5t-27.5 -9.5h-687v-525q0 -89 38.5 -117t119.5 -28h529q18 0 28 -8.5t10 -24.5v-16zM856 1641q0 -14 -18 -14h-45q-14 0 -21 6.5t-24 27.5l-193 232l-192 -232q-13 -16 -22 -25t-23 -9h-45q-19 0 -19 14q0 12 9 20l204 263q26 30 47 30h82q22 0 48 -30
l204 -263q8 -8 8 -20z" />
    <glyph glyph-name="Aacute" unicode="&#xc1;" horiz-adv-x="1227" 
d="M1169 25q0 -31 -32 -31h-25q-26 0 -33 26l-172 555h-590l-167 -555q-11 -26 -33 -26h-27q-31 0 -31 33q0 12 2 18l420 1387q16 48 50 74t83 26t83.5 -25.5t47.5 -72.5l420 -1389q4 -12 4 -20zM885 666l-223 743q-14 41 -48 41q-37 0 -47 -39l-225 -745h543zM823 1940
q0 -8 -8 -16l-219 -263q-13 -16 -22 -25t-23 -9h-45q-19 0 -19 14q0 12 8 20l205 263q26 30 47 30h54q22 0 22 -14z" />
    <glyph glyph-name="Edieresis" unicode="&#xcb;" horiz-adv-x="1051" 
d="M958 35q0 -16 -10.5 -25.5t-27.5 -9.5h-529q-81 0 -135.5 22t-83.5 72t-29 135v1063q0 85 29.5 135.5t83.5 72.5t135 22h529q17 0 27.5 -9.5t10.5 -25.5v-17q0 -15 -10 -23.5t-28 -8.5h-529q-81 0 -119.5 -29t-38.5 -117v-450h687q18 0 28 -9t10 -24v-21
q0 -15 -10.5 -24.5t-27.5 -9.5h-687v-525q0 -89 38.5 -117t119.5 -28h529q18 0 28 -8.5t10 -24.5v-16zM760 1704q0 -17 -11.5 -28t-27.5 -11h-12q-16 0 -27.5 11.5t-11.5 27.5v151q0 15 11.5 27t27.5 12h12q17 0 28 -11t11 -28v-151zM453 1704q0 -16 -11.5 -27.5
t-27.5 -11.5h-12q-16 0 -27.5 11.5t-11.5 27.5v151q0 15 11.5 27t27.5 12h12q17 0 28 -12t11 -27v-151z" />
    <glyph glyph-name="Egrave" unicode="&#xc8;" horiz-adv-x="1051" 
d="M958 35q0 -16 -10.5 -25.5t-27.5 -9.5h-529q-81 0 -135.5 22t-83.5 72t-29 135v1063q0 85 29.5 135.5t83.5 72.5t135 22h529q17 0 27.5 -9.5t10.5 -25.5v-17q0 -15 -10 -23.5t-28 -8.5h-529q-81 0 -119.5 -29t-38.5 -117v-450h687q18 0 28 -9t10 -24v-21
q0 -15 -10.5 -24.5t-27.5 -9.5h-687v-525q0 -89 38.5 -117t119.5 -28h529q18 0 28 -8.5t10 -24.5v-16zM694 1641q0 -14 -19 -14h-45q-11 0 -16.5 3.5t-13.5 13t-15 17.5l-219 263q-8 8 -8 16q0 14 22 14h54q21 0 47 -30l205 -263q8 -8 8 -20z" />
    <glyph glyph-name="Iacute" unicode="&#xcd;" horiz-adv-x="418" 
d="M254 39q0 -17 -10 -28t-25 -11h-20q-15 0 -25 12t-10 27v1444q0 15 10 27t25 12h20q15 0 25 -11t10 -28v-1444zM449 1940q0 -8 -8 -16l-219 -263q-13 -16 -22 -25t-23 -9h-45q-19 0 -19 14q0 12 8 20l205 263q26 30 47 30h54q22 0 22 -14z" />
    <glyph glyph-name="Icircumflex" unicode="&#xce;" horiz-adv-x="418" 
d="M254 39q0 -17 -10 -28t-25 -11h-20q-15 0 -25 12t-10 27v1444q0 15 10 27t25 12h20q15 0 25 -11t10 -28v-1444zM514 1641q0 -14 -18 -14h-45q-14 0 -21 6.5t-24 27.5l-193 232l-192 -232q-13 -16 -22 -25t-23 -9h-45q-19 0 -19 14q0 12 9 20l204 263q26 30 47 30h82
q22 0 48 -30l204 -263q8 -8 8 -20z" />
    <glyph glyph-name="Idieresis" unicode="&#xcf;" horiz-adv-x="418" 
d="M254 39q0 -17 -10 -28t-25 -11h-20q-15 0 -25 12t-10 27v1444q0 15 10 27t25 12h20q15 0 25 -11t10 -28v-1444zM406 1706q0 -17 -11.5 -28t-27.5 -11h-12q-16 0 -27.5 11.5t-11.5 27.5v151q0 15 11.5 27t27.5 12h12q17 0 28 -11t11 -28v-151zM99 1706q0 -16 -11.5 -27.5
t-27.5 -11.5h-12q-16 0 -27.5 11.5t-11.5 27.5v151q0 15 11.5 27t27.5 12h12q17 0 28 -12t11 -27v-151z" />
    <glyph glyph-name="Igrave" unicode="&#xcc;" horiz-adv-x="418" 
d="M254 39q0 -17 -10 -28t-25 -11h-20q-15 0 -25 12t-10 27v1444q0 15 10 27t25 12h20q15 0 25 -11t10 -28v-1444zM305 1641q0 -14 -19 -14h-45q-11 0 -16.5 3.5t-13.5 13t-15 17.5l-219 263q-8 8 -8 16q0 14 22 14h54q21 0 47 -30l205 -263q8 -8 8 -20z" />
    <glyph glyph-name="Oacute" unicode="&#xd3;" horiz-adv-x="1253" 
d="M1151 633q0 -222 -66 -366t-184 -211.5t-274 -67.5t-274.5 67.5t-184.5 211.5t-66 366v254q0 165 38.5 289t108.5 203t166 116t212 37q118 0 213 -37t165 -116t108 -203t38 -289v-254zM1061 633v254q0 151 -32 260.5t-91 175t-136.5 94.5t-174.5 29q-434 0 -434 -559
v-254q0 -559 434 -559q95 0 174 29.5t138 96t90.5 174.5t31.5 259zM811 1938q0 -8 -8 -16l-219 -263q-13 -16 -22 -25t-23 -9h-45q-19 0 -19 14q0 12 8 20l205 263q26 30 47 30h54q22 0 22 -14z" />
    <glyph glyph-name="Ocircumflex" unicode="&#xd4;" horiz-adv-x="1253" 
d="M1151 633q0 -222 -66 -366t-184 -211.5t-274 -67.5t-274.5 67.5t-184.5 211.5t-66 366v254q0 165 38.5 289t108.5 203t166 116t212 37q118 0 213 -37t165 -116t108 -203t38 -289v-254zM1061 633v254q0 151 -32 260.5t-91 175t-136.5 94.5t-174.5 29q-434 0 -434 -559
v-254q0 -559 434 -559q95 0 174 29.5t138 96t90.5 174.5t31.5 259zM930 1641q0 -14 -18 -14h-45q-14 0 -21 6.5t-24 27.5l-193 232l-192 -232q-13 -16 -22 -25t-23 -9h-45q-19 0 -19 14q0 12 9 20l204 263q26 30 47 30h82q22 0 48 -30l204 -263q8 -8 8 -20z" />
    <glyph glyph-name="Ograve" unicode="&#xd2;" horiz-adv-x="1253" 
d="M1151 633q0 -222 -66 -366t-184 -211.5t-274 -67.5t-274.5 67.5t-184.5 211.5t-66 366v254q0 165 38.5 289t108.5 203t166 116t212 37q118 0 213 -37t165 -116t108 -203t38 -289v-254zM1061 633v254q0 151 -32 260.5t-91 175t-136.5 94.5t-174.5 29q-434 0 -434 -559
v-254q0 -559 434 -559q95 0 174 29.5t138 96t90.5 174.5t31.5 259zM778 1639q0 -14 -19 -14h-45q-11 0 -16.5 3.5t-13.5 13t-15 17.5l-219 263q-8 8 -8 16q0 14 22 14h54q21 0 47 -30l205 -263q8 -8 8 -20z" />
    <glyph glyph-name="Uacute" unicode="&#xda;" horiz-adv-x="1255" 
d="M1112 541q0 -267 -119 -410t-364 -143q-244 0 -365 143.5t-121 409.5v942q0 15 10 27t25 12h21q15 0 24.5 -11t9.5 -28v-942q0 -152 40 -256t128 -158.5t228 -54.5q207 0 300 119t93 350v942q0 15 10 27t25 12h20q15 0 25 -11t10 -28v-942zM883 1938q0 -8 -8 -16
l-219 -263q-13 -16 -22 -25t-23 -9h-45q-19 0 -19 14q0 12 8 20l205 263q26 30 47 30h54q22 0 22 -14z" />
    <glyph glyph-name="Ucircumflex" unicode="&#xdb;" horiz-adv-x="1255" 
d="M1112 541q0 -267 -119 -410t-364 -143q-244 0 -365 143.5t-121 409.5v942q0 15 10 27t25 12h21q15 0 24.5 -11t9.5 -28v-942q0 -152 40 -256t128 -158.5t228 -54.5q207 0 300 119t93 350v942q0 15 10 27t25 12h20q15 0 25 -11t10 -28v-942zM942 1641q0 -14 -18 -14h-45
q-14 0 -21 6.5t-24 27.5l-193 232l-192 -232q-13 -16 -22 -25t-23 -9h-45q-19 0 -19 14q0 12 9 20l204 263q26 30 47 30h82q22 0 48 -30l204 -263q8 -8 8 -20z" />
    <glyph glyph-name="Ugrave" unicode="&#xd9;" horiz-adv-x="1255" 
d="M1112 541q0 -267 -119 -410t-364 -143q-244 0 -365 143.5t-121 409.5v942q0 15 10 27t25 12h21q15 0 24.5 -11t9.5 -28v-942q0 -152 40 -256t128 -158.5t228 -54.5q207 0 300 119t93 350v942q0 15 10 27t25 12h20q15 0 25 -11t10 -28v-942zM764 1641q0 -14 -19 -14h-45
q-11 0 -16.5 3.5t-13.5 13t-15 17.5l-219 263q-8 8 -8 16q0 14 22 14h54q21 0 47 -30l205 -263q8 -8 8 -20z" />
    <glyph glyph-name="dotlessi" unicode="&#x131;" horiz-adv-x="377" 
d="M233 39q0 -16 -11.5 -27.5t-26.5 -11.5h-13q-15 0 -27 12t-12 27v1022q0 15 12 27t27 12h13q15 0 26.5 -11.5t11.5 -27.5v-1022z" />
    <glyph glyph-name="circumflex" unicode="&#x2c6;" horiz-adv-x="635" 
d="M618 1280q0 -14 -18 -14h-45q-14 0 -21 6.5t-24 27.5l-193 232l-192 -232q-13 -16 -22 -25t-23 -9h-45q-19 0 -19 14q0 12 9 20l204 263q26 30 47 30h82q22 0 48 -30l204 -263q8 -8 8 -20z" />
    <glyph glyph-name="tilde" unicode="&#x2dc;" horiz-adv-x="965" 
d="M797 1473q0 -92 -42.5 -139.5t-117.5 -47.5q-80 0 -137 53l-99 97q-30 30 -49.5 43.5t-48.5 13.5q-84 0 -84 -109v-53q0 -33 -20 -33h-35q-23 0 -23 33v53q0 91 43.5 139t118.5 48q78 0 135 -53l99 -97q57 -57 100 -57q82 0 82 109v53q0 33 20 33h35q23 0 23 -33v-53z
" />
    <glyph glyph-name="macron" unicode="&#x2c9;" horiz-adv-x="635" 
d="M631 1442q0 -33 -41 -33h-545q-41 0 -41 33v22q0 31 41 31h545q41 0 41 -31v-22z" />
    <glyph glyph-name="breve" unicode="&#x2d8;" horiz-adv-x="635" 
d="M610 1559q0 -84 -39 -150.5t-106.5 -104.5t-147.5 -38q-78 0 -146.5 38t-107 104.5t-38.5 150.5q0 34 24 34h41q15 0 19 -5.5t4 -28.5q0 -116 66 -162.5t138 -46.5q73 0 139 46.5t66 162.5q0 21 4 27.5t19 6.5h41q24 0 24 -34z" />
    <glyph glyph-name="dotaccent" unicode="&#x2d9;" horiz-adv-x="635" 
d="M362 1352q0 -17 -11 -28t-27 -11h-13q-16 0 -27.5 11.5t-11.5 27.5v151q0 15 11.5 27t27.5 12h13q17 0 27.5 -11.5t10.5 -27.5v-151z" />
    <glyph glyph-name="ring" unicode="&#x2da;" horiz-adv-x="635" 
d="M508 1430q0 -79 -57 -135t-134 -56q-76 0 -133 57t-57 134q0 78 56 134t134 56q79 0 135 -55t56 -135zM436 1430q0 50 -34 84t-85 34q-49 0 -82.5 -34.5t-33.5 -83.5q0 -50 33.5 -84.5t82.5 -34.5q51 0 85 34t34 85z" />
    <glyph glyph-name="cedilla" unicode="&#xb8;" horiz-adv-x="635" 
d="M412 -78q0 -8 -9 -16l-219 -262q-3 -4 -12.5 -16t-16 -15.5t-16.5 -3.5h-45q-18 0 -18 14q0 13 8 21l205 262q15 18 23.5 24.5t23.5 6.5h53q23 0 23 -15z" />
    <glyph glyph-name="hungarumlaut" unicode="&#x2dd;" horiz-adv-x="635" 
d="M731 1579q0 -8 -8 -16l-219 -263q-13 -16 -22 -25t-23 -9h-45q-19 0 -19 14q0 12 8 20l205 263q26 30 47 30h54q22 0 22 -14zM444 1579q0 -8 -8 -16l-219 -263q-18 -22 -24.5 -28t-20.5 -6h-45q-18 0 -18 14q0 12 8 20l205 263q25 30 47 30h53q22 0 22 -14z" />
    <glyph glyph-name="ogonek" unicode="&#x2db;" horiz-adv-x="635" 
d="M547 -348q0 -18 -23 -23q-84 -28 -162 -28q-129 0 -185 75.5t-56 194.5q0 76 31 186q2 12 7.5 15.5t18.5 3.5h33q18 0 18 -10q0 -9 -2 -15q-22 -112 -22 -180q0 -89 35 -142t122 -53q56 0 158 25q12 4 17 4q10 0 10 -14v-39z" />
    <glyph glyph-name="caron" unicode="&#x2c7;" horiz-adv-x="635" 
d="M618 1579q0 -12 -8 -20l-204 -263q-13 -16 -23 -23t-25 -7h-82q-14 0 -22 5.5t-25 24.5l-204 263q-9 8 -9 20q0 14 19 14h45q14 0 21 -6.5t24 -27.5l192 -232l193 232q18 22 24.5 28t20.5 6h45q18 0 18 -14z" />
    <glyph glyph-name="Lslash" unicode="&#x141;" horiz-adv-x="948" 
d="M897 35q0 -35 -39 -35h-467q-81 0 -135.5 22t-83.5 72t-29 135v439l-147 -213q-11 -15 -23 -15q-16 0 -16 13v59q0 28 16 51l170 246v674q0 15 10 27t25 12h21q15 0 24.5 -11t9.5 -28v-545l148 213q11 14 22 14q17 0 17 -12v-59q0 -28 -17 -52l-170 -245v-568
q0 -89 38.5 -117t119.5 -28h467q39 0 39 -33v-16z" />
    <glyph glyph-name="lslash" unicode="&#x142;" horiz-adv-x="377" 
d="M420 1081q0 -12 -14 -32l-173 -252v-758q0 -16 -9.5 -27.5t-24.5 -11.5h-21q-15 0 -25 12t-10 27v629l-147 -213q-12 -19 -27 -19q-12 0 -12 17v71q0 17 12 33l174 252v674q0 15 10 27t25 12h21q15 0 24.5 -11t9.5 -28v-545l148 213q17 23 27 23q12 0 12 -17v-72v-4z" />
    <glyph glyph-name="Scaron" unicode="&#x160;" horiz-adv-x="1044" 
d="M973 379q0 -70 -20.5 -138t-70 -125t-141 -92.5t-225.5 -35.5q-113 0 -213.5 25t-173.5 59q-10 5 -19.5 10.5t-13.5 14t-4 18.5v28q0 13 9 21t30 -2q197 -88 385 -88q138 0 218.5 39t112.5 107t32 159q0 73 -30.5 123.5t-89.5 94t-196 128.5l-129 80q-110 68 -176 121
t-105.5 120t-39.5 154q0 180 125.5 256t293.5 76q70 0 146 -13t134 -31t85 -32q23 -10 29 -17.5t6 -23.5v-22q0 -39 -39 -23q-36 16 -89.5 32.5t-126 30t-145.5 13.5q-327 0 -327 -248q0 -63 30 -112t84 -92t162 -109l131 -80q123 -73 201 -134.5t119 -132t41 -159.5z
M827 1942q0 -12 -8 -20l-204 -263q-13 -16 -23 -23t-25 -7h-82q-14 0 -22 5.5t-25 24.5l-204 263q-9 8 -9 20q0 14 19 14h45q14 0 21 -6.5t24 -27.5l192 -232l193 232q18 22 24.5 28t20.5 6h45q18 0 18 -14z" />
    <glyph glyph-name="scaron" unicode="&#x161;" horiz-adv-x="860" 
d="M778 272q0 -152 -96.5 -218t-257.5 -66q-71 0 -157.5 17t-139.5 38q-31 14 -38 21t-7 26v8q0 22 11 27.5t36 -2.5q77 -27 150 -42t149 -15q124 0 192 45t68 161q0 63 -44 108.5t-173 115.5l-131 71q-90 50 -140.5 88t-79 87t-28.5 116q0 91 43 147t116 80.5t163 24.5
q84 0 163.5 -16t133.5 -37q19 -7 24.5 -13.5t5.5 -23.5v-12q0 -41 -43 -27q-54 17 -130.5 33t-153.5 16q-113 0 -172.5 -35.5t-59.5 -136.5q0 -63 47 -108.5t152 -104.5l137 -76q142 -78 201 -139t59 -158zM723 1579q0 -12 -8 -20l-204 -263q-13 -16 -23 -23t-25 -7h-82
q-14 0 -22 5.5t-25 24.5l-204 263q-9 8 -9 20q0 14 19 14h45q14 0 21 -6.5t24 -27.5l192 -232l193 232q18 22 24.5 28t20.5 6h45q18 0 18 -14z" />
    <glyph glyph-name="Zcaron" unicode="&#x17d;" horiz-adv-x="1178" 
d="M1075 33q0 -16 -12.5 -24.5t-30.5 -8.5h-803q-110 0 -110 88q0 40 22 74l777 1249q4 6 4 14q0 13 -17 13h-741q-43 0 -43 30v21q0 14 13 23.5t30 9.5h741q60 0 84 -17q35 -20 35 -65q0 -34 -23 -70l-782 -1264q-4 -8 -4 -14q0 -8 14 -8h803q43 0 43 -31v-20zM881 1940
q0 -12 -8 -20l-204 -263q-13 -16 -23 -23t-25 -7h-82q-14 0 -22 5.5t-25 24.5l-204 263q-9 8 -9 20q0 14 19 14h45q14 0 21 -6.5t24 -27.5l192 -232l193 232q18 22 24.5 28t20.5 6h45q18 0 18 -14z" />
    <glyph glyph-name="zcaron" unicode="&#x17e;" horiz-adv-x="872" 
d="M811 33q0 -16 -11 -24.5t-30 -8.5h-594q-57 0 -86 24t-29 60q0 43 25 76l612 817q9 14 9 20q0 19 -29 19h-539q-41 0 -41 31v20q0 14 12 23.5t29 9.5h541q48 0 81.5 -24t33.5 -64q0 -49 -33 -92l-594 -797q-12 -20 -12 -25q0 -14 20 -14h594q41 0 41 -31v-20zM756 1579
q0 -12 -8 -20l-204 -263q-13 -16 -23 -23t-25 -7h-82q-14 0 -22 5.5t-25 24.5l-204 263q-9 8 -9 20q0 14 19 14h45q14 0 21 -6.5t24 -27.5l192 -232l193 232q18 22 24.5 28t20.5 6h45q18 0 18 -14z" />
    <glyph glyph-name="brokenbar" unicode="&#xa6;" horiz-adv-x="418" 
d="M254 739q0 -17 -10 -28t-25 -11h-20q-15 0 -25 12t-10 27v713q0 15 9.5 27t25.5 12h20q16 0 25.5 -11t9.5 -28v-713zM254 -393q0 -17 -10 -28t-25 -11h-20q-15 0 -25 12t-10 27v712q0 15 9.5 27t25.5 12h20q16 0 25.5 -11t9.5 -28v-712z" />
    <glyph glyph-name="Eth" unicode="&#xd0;" horiz-adv-x="1214" 
d="M1112 633q0 -337 -160 -491t-438 -154q-240 0 -336 16q-15 3 -25 14t-10 25v711h-145q-39 0 -39 34v21q0 15 10.5 24t28.5 9h145v635q0 29 35 39q96 16 336 16q136 0 244.5 -34.5t187.5 -110t122.5 -199.5t43.5 -301v-254zM1022 633v254q0 210 -64.5 334.5t-177.5 177.5
t-266 53q-92 0 -133.5 -2.5t-147.5 -9.5v-598h175q18 0 28 -9t10 -24v-21q0 -15 -10.5 -24.5t-27.5 -9.5h-175v-678q121 -8 281 -8q151 0 265 53.5t178.5 179t64.5 332.5z" />
    <glyph glyph-name="eth" unicode="&#xf0;" horiz-adv-x="1028" 
d="M936 692v-71v-144q0 -154 -47 -264t-142 -167.5t-233 -57.5t-233 57.5t-142 167.5t-47 264v144q0 154 47 264t142 167.5t233 57.5q202 0 307 -119q-65 241 -342 363l-198 -150q-16 -12 -27 -12q-9 0 -23 12l-10 13q-6 6 -6 16q0 16 21 33l157 123q-106 37 -219 59
q-33 8 -33 31q0 6 2 10l7 20q7 23 26 23q12 0 19 -2q170 -40 278 -82l209 160q11 8 25 8q16 0 26 -10l12 -13q9 -8 9 -16q0 -10 -21 -29l-178 -135q171 -87 254.5 -202t105 -236t21.5 -283zM846 477v144q0 128 -33.5 219.5t-107 140.5t-191.5 49t-191.5 -49t-107 -140.5
t-33.5 -219.5v-144q0 -197 79 -303t253 -106t253 106t79 303z" />
    <glyph glyph-name="Yacute" unicode="&#xdd;" horiz-adv-x="1087" 
d="M1014 1493q0 -10 -6 -27l-324 -714q-45 -99 -96 -119v-594q0 -15 -10 -27t-25 -12h-21q-14 0 -24 12t-10 27v594q-51 20 -97 119l-323 714q-6 17 -6 27q0 29 34 29h21q9 0 18.5 -8t14.5 -17l321 -717q22 -46 33 -58.5t29 -12.5t29.5 13.5t31.5 57.5l322 717q13 25 32 25
h21q35 0 35 -29zM784 1940q0 -8 -8 -16l-219 -263q-13 -16 -22 -25t-23 -9h-45q-19 0 -19 14q0 12 8 20l205 263q26 30 47 30h54q22 0 22 -14z" />
    <glyph glyph-name="yacute" unicode="&#xfd;" horiz-adv-x="954" 
d="M895 1065q0 -10 -2 -16l-336 -1164q-32 -112 -72 -172.5t-101 -86t-159 -25.5q-53 0 -127 12q-41 7 -41 29v22q0 29 31 29h12q93 -12 133 -12q57 0 95 10.5t65 35t45.5 65t38.5 112.5l27 96h-29q-50 0 -76.5 22t-48.5 93l-276 936q-2 4 -2 14q0 35 34 35h19
q9 0 19.5 -9.5t13.5 -19.5l276 -942q13 -45 47 -45h47l281 989q8 27 37 27h18q31 0 31 -35zM758 1579q0 -8 -8 -16l-219 -263q-13 -16 -22 -25t-23 -9h-45q-19 0 -19 14q0 12 8 20l205 263q26 30 47 30h54q22 0 22 -14z" />
    <glyph glyph-name="Thorn" unicode="&#xde;" horiz-adv-x="1065" 
d="M1014 885q0 -234 -142 -336.5t-415 -102.5q-93 0 -224 9v-416q0 -16 -9.5 -27.5t-24.5 -11.5h-21q-15 0 -25 12t-10 27v1444q0 15 10 27t25 12h21q15 0 24.5 -11t9.5 -28v-154q105 6 224 6q557 0 557 -415v-35zM924 885v35q0 185 -114 260t-353 75q-134 0 -224 -6v-714
q115 -9 224 -9q123 0 208.5 20t144 63t86.5 110.5t28 165.5z" />
    <glyph glyph-name="thorn" unicode="&#xfe;" horiz-adv-x="991" 
d="M899 477q0 -161 -44.5 -270t-134 -164t-222.5 -55q-148 0 -285 30v-378q0 -17 -10 -28t-25 -11h-20q-15 0 -25 12t-10 27v1843q0 15 10 27t25 12h20q15 0 25 -11t10 -28v-400q155 27 285 27q137 0 226.5 -61.5t132 -173t42.5 -263.5v-135zM809 477v135q0 209 -72.5 313.5
t-238.5 104.5q-72 0 -141.5 -7t-143.5 -19v-910q127 -26 285 -26q112 0 180.5 45.5t99.5 135t31 228.5z" />
    <glyph glyph-name="minus" unicode="&#x2212;" 
d="M1030 791q0 -33 -41 -33h-829q-41 0 -41 33v20q0 33 41 33h829q41 0 41 -33v-20z" />
    <glyph glyph-name="multiply" unicode="&#xd7;" 
d="M942 1122q0 -14 -16 -30l-293 -291l293 -293q16 -16 16 -31q0 -12 -10 -22l-14 -15q-12 -10 -23 -10q-15 0 -31 16l-291 293l-290 -290q-17 -17 -31 -17q-11 0 -23 10l-14 15q-10 10 -10 22q0 15 16 31l291 291l-291 291q-16 16 -16 30q0 11 10 21l14 14q12 10 23 10
q13 0 31 -16l290 -291l291 293q16 16 31 16q11 0 23 -10l14 -14q10 -10 10 -23z" />
    <glyph glyph-name="onesuperior" unicode="&#xb9;" horiz-adv-x="518" 
d="M311 1489v-754q0 -37 -37 -37h-14q-35 0 -35 37v709l-119 -12h-8q-15 0 -20.5 9t-5.5 25q0 20 7.5 27.5t29.5 11.5l163 23h9q30 0 30 -39z" />
    <glyph glyph-name="twosuperior" unicode="&#xb2;" horiz-adv-x="635" 
d="M573 1337q0 -76 -36.5 -123.5t-124.5 -109.5l-113 -76q-92 -65 -117.5 -108.5t-25.5 -114.5v-29h364q17 0 27 -8.5t10 -24.5v-12q0 -33 -37 -33h-409q-17 0 -27 12.5t-10 26.5v68q0 89 36 151.5t142 135.5l113 77q48 34 73.5 56.5t37 48.5t11.5 63q0 117 -151 117
q-54 0 -114 -12t-95 -25q-43 -14 -43 29v8q0 17 5 24t24 15q111 39 223 39q237 0 237 -195z" />
    <glyph glyph-name="threesuperior" unicode="&#xb3;" horiz-adv-x="635" 
d="M307 686q-55 0 -112.5 11.5t-85.5 25.5q-16 8 -23.5 16t-7.5 23v6q0 47 49 29q93 -31 172 -31q182 0 182 168v14q0 63 -34.5 103.5t-106.5 40.5h-205q-37 0 -37 36v9q0 17 10.5 25.5t26.5 8.5h205q70 0 105.5 41t35.5 97v16q0 72 -39 100.5t-116 28.5q-100 0 -199 -33
q-25 -9 -37 -4.5t-12 29.5v8q0 19 6.5 26.5t26.5 14.5q126 37 215 37q111 0 176 -47t65 -160v-16q0 -125 -100 -181q100 -56 100 -180v-14q0 -119 -72 -183.5t-188 -64.5z" />
    <glyph glyph-name="onehalf" unicode="&#xbd;" horiz-adv-x="1425" 
d="M1128 1522h35q27 0 27 -19q0 -9 -8 -20l-856 -1456q-13 -24 -22.5 -31.5t-31.5 -7.5h-39q-20 0 -20 16q0 5 8 23l856 1456q16 25 25.5 32t25.5 7zM311 1489v-754q0 -37 -37 -37h-14q-35 0 -35 37v709l-119 -12h-8q-15 0 -20.5 9t-5.5 25q0 20 7.5 27.5t29.5 11.5l163 23
h9q30 0 30 -39zM1440 639q0 -52 -17.5 -91t-51 -69t-93.5 -73l-113 -76q-92 -65 -117.5 -108.5t-25.5 -115.5v-28h364q17 0 27 -8.5t10 -24.5v-12q0 -33 -37 -33h-409q-17 0 -27 12.5t-10 26.5v67q0 59 13.5 104t53 89t111.5 94l113 78q44 29 72 54t39.5 51t11.5 63
q0 117 -152 117q-45 0 -109 -12.5t-100 -24.5q-6 -2 -18 -2q-25 0 -25 31v8q0 15 6 23t23 16q114 39 223 39t173.5 -47t64.5 -148z" />
    <glyph glyph-name="onequarter" unicode="&#xbc;" horiz-adv-x="1432" 
d="M1128 1522h35q27 0 27 -19q0 -9 -8 -20l-856 -1456q-13 -24 -22.5 -31.5t-31.5 -7.5h-39q-20 0 -20 16q0 5 8 23l856 1456q16 25 25.5 32t25.5 7zM1178 295v434l-285 -422q-2 -2 -2 -6q0 -6 8 -6h279zM1264 217v-180q0 -37 -37 -37h-15q-34 0 -34 37v180h-289
q-86 0 -86 70q0 20 6 36t20 37l299 439q25 35 72 35q64 0 64 -68v-471h90q16 0 26.5 -8.5t10.5 -24.5v-10q0 -16 -11 -25.5t-26 -9.5h-90zM311 1489v-754q0 -37 -37 -37h-14q-35 0 -35 37v709l-119 -12h-8q-15 0 -20.5 9t-5.5 25q0 20 7.5 27.5t29.5 11.5l163 23h9
q30 0 30 -39z" />
    <glyph glyph-name="threequarters" unicode="&#xbe;" horiz-adv-x="1538" 
d="M1223 1522h34q20 0 25 -11.5t-6 -27.5l-856 -1456q-13 -24 -22.5 -31.5t-30.5 -7.5h-39q-15 0 -19 11.5t6 27.5l856 1456q16 25 25.5 32t26.5 7zM305 686q-54 0 -111 11t-88 26q-13 7 -21.5 15.5t-8.5 23.5v6q0 47 49 29q93 -31 172 -31q182 0 182 168v14
q0 63 -34.5 103.5t-106.5 40.5h-205q-37 0 -37 36v9q0 17 10.5 25.5t26.5 8.5h205q70 0 105.5 41t35.5 97v16q0 72 -39 100.5t-116 28.5q-100 0 -199 -33q-25 -9 -37 -4.5t-12 29.5v8q0 19 6.5 26.5t26.5 14.5q126 37 215 37q111 0 176 -47t65 -160v-16q0 -125 -100 -181
q100 -56 100 -180v-14q0 -119 -72 -183.5t-188 -64.5zM1272 295v434l-285 -422q-8 -12 6 -12h279zM1358 217v-180q0 -37 -37 -37h-14q-35 0 -35 37v180h-289q-86 0 -86 70q0 35 27 73l299 439q23 35 71 35q64 0 64 -68v-471h90q16 0 26.5 -8.5t10.5 -24.5v-10
q0 -16 -11 -25.5t-26 -9.5h-90z" />
    <glyph glyph-name="uni00AD" unicode="&#xad;" horiz-adv-x="664" 
d="M578 559q0 -15 -10.5 -24t-28.5 -9h-414q-17 0 -28 9t-11 24v16q0 17 11 27t28 10h414q17 0 28 -10t11 -27v-16z" />
    <glyph glyph-name="uni00AF" unicode="&#xaf;" horiz-adv-x="911" 
d="M993 1670q0 -16 -11.5 -24.5t-29.5 -8.5h-993q-16 0 -28.5 9t-12.5 24v21q0 32 41 32h993q41 0 41 -32v-21z" />
    <glyph glyph-name="uni00B7" unicode="&#xb7;" horiz-adv-x="303" 
d="M197 737q0 -16 -11.5 -27.5t-27.5 -11.5h-13q-16 0 -27.5 11.5t-11.5 27.5v152q0 15 12 27t27 12h13q15 0 27 -12t12 -27v-152z" />
    <glyph glyph-name="uni2044" unicode="&#x2044;" horiz-adv-x="582" 
d="M721 1522h35q25 0 25 -19q0 -10 -7 -20l-856 -1456q-14 -25 -23 -32t-30 -7h-39q-20 0 -20 16q0 11 8 23l856 1456q12 22 23 30.5t28 8.5z" />
    <glyph glyph-name="currency" unicode="&#xa4;" 
d="M1004 330q0 -14 -11 -25l-14 -14q-10 -10 -23 -10q-16 0 -30 14l-166 168q-107 -84 -240 -84q-134 0 -237 82l-164 -164q-14 -14 -31 -14q-12 0 -22 10l-15 14q-10 10 -10 23q0 16 14 30l162 162q-86 109 -86 244q0 133 84 240l-160 159q-14 16 -14 31q0 13 10 25l15 14
q8 8 20 8q19 0 33 -14l160 -160q105 84 239 84q135 0 244 -86l164 164q14 14 30 14q13 0 23 -10l14 -14q11 -13 11 -23q0 -14 -15 -31l-164 -163q82 -102 82 -238q0 -135 -84 -240l166 -166q15 -15 15 -30zM823 766q0 64 -23.5 118t-65 95.5t-97 64.5t-117.5 23
q-81 0 -151.5 -40t-111 -109t-40.5 -152q0 -82 40.5 -152t110.5 -110.5t152 -40.5t152 40.5t110.5 110.5t40.5 152z" />
    </font>
</defs>
</svg>
